<svg width="1418" height="682" viewBox="0 0 1418 682" fill="none" xmlns="http://www.w3.org/2000/svg">
    <path fill-rule="evenodd" clip-rule="evenodd"
        d="M42.5704 11.3911H29.8125V381.047H42.5704V11.3911ZM28.8125 10.3911V382.047H43.5704V10.3911H28.8125Z"
        fill="#7AADF3" />
    <path fill-rule="evenodd" clip-rule="evenodd"
        d="M1410.38 11.3911H1397.62V654.51H1410.38V11.3911ZM1396.62 10.3911V655.51H1411.38V10.3911H1396.62Z"
        fill="#7AADF3" />
    <path d="M1391.74 10.3921H1417.08V35.7358H1391.74V10.3921Z" fill="white" />
    <path fill-rule="evenodd" clip-rule="evenodd"
        d="M1416.08 11.3921H1392.74V34.7358H1416.08V11.3921ZM1391.74 10.3921V35.7358H1417.08V10.3921H1391.74Z"
        fill="#7AADF3" />
    <path d="M1390.95 328.199H1415.92V351.428H1390.95V328.199Z" fill="white" />
    <path fill-rule="evenodd" clip-rule="evenodd"
        d="M1414.92 329.199H1391.95V350.428H1414.92V329.199ZM1390.95 328.199V351.428H1415.92V328.199H1390.95Z"
        fill="#7AADF3" />
    <path d="M1390.95 621.723H1415.92V655.51H1390.95V621.723Z" fill="white" />
    <path fill-rule="evenodd" clip-rule="evenodd"
        d="M1414.92 622.723H1391.95V654.51H1414.92V622.723ZM1390.95 621.723V655.51H1415.92V621.723H1390.95Z"
        fill="#7AADF3" />
    <path fill-rule="evenodd" clip-rule="evenodd"
        d="M1000.13 0H1020.86V6H1006.13V21.0427H1000.13V0ZM1070.09 6H1034.64V0H1070.09V6ZM1119.33 6H1083.88V0H1119.33V6ZM1168.56 6H1133.11V0H1168.56V6ZM1217.8 6H1182.35V0H1217.8V6ZM1267.03 6H1231.59V0H1267.03V6ZM1316.27 6H1280.82V0H1316.27V6ZM1365.51 6H1330.06V0H1365.51V6ZM1397.02 6H1379.29V0H1397.02V6ZM1006.13 35.076V71.1615H1000.13V35.076H1006.13ZM1006.13 85.1948V121.28H1000.13V85.1948H1006.13ZM1006.13 135.314V171.399H1000.13V135.314H1006.13ZM1006.13 185.432V221.518H1000.13V185.432H1006.13ZM1006.13 235.551V271.637H1000.13V235.551H1006.13ZM1006.13 285.67V321.755H1000.13V285.67H1006.13ZM1006.13 335.789V371.874H1000.13V335.789H1006.13ZM1006.13 385.908V421.993H1000.13V385.908H1006.13ZM1006.13 436.026V472.112H1000.13V436.026H1006.13ZM1006.13 486.145V522.231H1000.13V486.145H1006.13ZM1006.13 536.264V572.349H1000.13V536.264H1006.13ZM1006.13 586.383V622.468H1000.13V586.383H1006.13ZM1006.13 636.501V654.544H1000.13V636.501H1006.13Z"
        fill="#7AADF3" />
    <path fill-rule="evenodd" clip-rule="evenodd"
        d="M906.869 0H885.376V6H900.869V21.0719H906.869V0ZM834.005 6H870.992V0H834.005V6ZM782.634 6H819.621V0H782.634V6ZM731.264 6H768.251V0H731.264V6ZM679.893 6H716.88V0H679.893V6ZM628.522 6H665.509V0H628.522V6ZM577.152 6H614.138V0H577.152V6ZM525.781 6H562.768V0H525.781V6ZM474.41 6H511.397V0H474.41V6ZM423.039 6H460.026V0H423.039V6ZM371.669 6H408.656V0H371.669V6ZM320.298 6H357.285V0H320.298V6ZM268.927 6H305.914V0H268.927V6ZM217.557 6H254.544V0H217.557V6ZM166.186 6H203.173V0H166.186V6ZM114.815 6H151.802V0H114.815V6ZM63.4448 6H100.432V0H63.4448V6ZM30.5674 6H49.061V0H30.5674V6ZM900.869 35.1279V71.272H906.869V35.1279H900.869ZM900.869 85.328V121.472H906.869V85.328H900.869ZM900.869 135.528V171.672H906.869V135.528H900.869ZM900.869 185.728V221.872H906.869V185.728H900.869ZM900.869 235.928V272.072H906.869V235.928H900.869ZM900.869 286.128V322.272H906.869V286.128H900.869ZM900.869 336.328V372.472H906.869V336.328H900.869ZM900.869 386.528V422.672H906.869V386.528H900.869ZM900.869 436.728V472.872H906.869V436.728H900.869ZM900.869 486.928V523.072H906.869V486.928H900.869ZM900.869 537.128V573.272H906.869V537.128H900.869ZM900.869 587.328V623.472H906.869V587.328H900.869ZM900.869 637.528V655.6H906.869V637.528H900.869Z"
        fill="#7AADF3" />
    <path fill-rule="evenodd" clip-rule="evenodd"
        d="M1415.02 655.545H28.3994V681.001H1415.02V655.545ZM27.3994 654.545V682.001H1416.02V654.545H27.3994Z"
        fill="#7AADF3" />
    <path fill-rule="evenodd" clip-rule="evenodd"
        d="M305.18 655.545H85.4229V681.001H305.18V655.545ZM84.4229 654.545V682.001H306.18V654.545H84.4229Z"
        fill="#7AADF3" />
    <path fill-rule="evenodd" clip-rule="evenodd"
        d="M640.985 655.545H422.283V681.001H640.985V655.545ZM421.283 654.545V682.001H641.985V654.545H421.283Z"
        fill="#7AADF3" />
    <path fill-rule="evenodd" clip-rule="evenodd"
        d="M977.844 655.545H758.087V681.001H977.844V655.545ZM757.087 654.545V682.001H978.844V654.545H757.087Z"
        fill="#7AADF3" />
    <path fill-rule="evenodd" clip-rule="evenodd"
        d="M1313.65 655.545H1094.95V681.001H1313.65V655.545ZM1093.95 654.545V682.001H1314.65V654.545H1093.95Z"
        fill="#7AADF3" />
    <path fill-rule="evenodd" clip-rule="evenodd"
        d="M41.1832 480.25H28.3994V654.6H41.1832V480.25ZM27.3994 479.25V655.6H42.1832V479.25H27.3994Z" fill="#7AADF3" />
    <path fill-rule="evenodd" clip-rule="evenodd"
        d="M28.068 479.566L0.612305 445.774L1.38842 445.144L28.8441 478.935L28.068 479.566Z" fill="#7AADF3" />
    <path fill-rule="evenodd" clip-rule="evenodd"
        d="M29.1298 380.721L0.618164 414.512L1.38246 415.157L29.8941 381.366L29.1298 380.721Z" fill="#7AADF3" />
</svg>