<svg width="167" height="92" viewBox="0 0 167 92" fill="none" xmlns="http://www.w3.org/2000/svg">
<circle cx="12" cy="12" r="12" fill="#0C89CB"/>
<path d="M44.642 5.86364V17.5H42.5511V7.61364H37.4602V17.5H35.3693V5.86364H44.642ZM49.5838 17.6761C49.0308 17.6761 48.5327 17.5777 48.0895 17.3807C47.6501 17.1799 47.3016 16.8845 47.044 16.4943C46.7902 16.1042 46.6634 15.6231 46.6634 15.0511C46.6634 14.5587 46.7543 14.1515 46.9361 13.8295C47.1179 13.5076 47.366 13.25 47.6804 13.0568C47.9948 12.8636 48.349 12.7178 48.7429 12.6193C49.1406 12.517 49.5516 12.4432 49.9759 12.3977C50.4872 12.3447 50.902 12.2973 51.2202 12.2557C51.5384 12.2102 51.7694 12.142 51.9134 12.0511C52.0611 11.9564 52.1349 11.8106 52.1349 11.6136V11.5795C52.1349 11.1515 52.008 10.8201 51.7543 10.5852C51.5005 10.3504 51.1349 10.233 50.6577 10.233C50.1539 10.233 49.7543 10.3428 49.4588 10.5625C49.1671 10.7822 48.9702 11.0417 48.8679 11.3409L46.9474 11.0682C47.099 10.5379 47.349 10.0947 47.6974 9.73864C48.0459 9.37879 48.4721 9.10985 48.9759 8.93182C49.4796 8.75 50.0365 8.65909 50.6463 8.65909C51.0668 8.65909 51.4853 8.70833 51.902 8.80682C52.3187 8.9053 52.6993 9.06818 53.044 9.29545C53.3887 9.51894 53.6652 9.82386 53.8736 10.2102C54.0857 10.5966 54.1918 11.0795 54.1918 11.6591V17.5H52.2145V16.3011H52.1463C52.0213 16.5436 51.8452 16.7708 51.6179 16.983C51.3944 17.1913 51.1122 17.3598 50.7713 17.4886C50.4342 17.6136 50.0384 17.6761 49.5838 17.6761ZM50.1179 16.1648C50.5308 16.1648 50.8887 16.0833 51.1918 15.9205C51.4948 15.7538 51.7277 15.5341 51.8906 15.2614C52.0573 14.9886 52.1406 14.6913 52.1406 14.3693V13.3409C52.0762 13.3939 51.9664 13.4432 51.8111 13.4886C51.6596 13.5341 51.4891 13.5739 51.2997 13.608C51.1103 13.642 50.9228 13.6723 50.7372 13.6989C50.5516 13.7254 50.3906 13.7481 50.2543 13.767C49.9474 13.8087 49.6728 13.8769 49.4304 13.9716C49.188 14.0663 48.9967 14.1989 48.8565 14.3693C48.7164 14.536 48.6463 14.7519 48.6463 15.017C48.6463 15.3958 48.7846 15.6818 49.0611 15.875C49.3376 16.0682 49.6899 16.1648 50.1179 16.1648ZM56.2599 20.7727V8.77273H58.2827V10.2159H58.402C58.508 10.0038 58.6577 9.77841 58.8509 9.53977C59.044 9.29735 59.3054 9.09091 59.6349 8.92045C59.9645 8.74621 60.3849 8.65909 60.8963 8.65909C61.5705 8.65909 62.1785 8.83144 62.7202 9.17614C63.2656 9.51705 63.6974 10.0227 64.0156 10.6932C64.3376 11.3598 64.4986 12.178 64.4986 13.1477C64.4986 14.1061 64.3414 14.9205 64.027 15.5909C63.7126 16.2614 63.2846 16.7727 62.7429 17.125C62.2012 17.4773 61.5876 17.6534 60.902 17.6534C60.402 17.6534 59.9872 17.5701 59.6577 17.4034C59.3281 17.2367 59.063 17.036 58.8622 16.8011C58.6652 16.5625 58.5118 16.3371 58.402 16.125H58.3168V20.7727H56.2599ZM58.277 13.1364C58.277 13.7008 58.3565 14.1951 58.5156 14.6193C58.6785 15.0436 58.9115 15.375 59.2145 15.6136C59.5213 15.8485 59.8925 15.9659 60.3281 15.9659C60.7827 15.9659 61.1634 15.8447 61.4702 15.6023C61.777 15.3561 62.008 15.0208 62.1634 14.5966C62.3224 14.1686 62.402 13.6818 62.402 13.1364C62.402 12.5947 62.3243 12.1136 62.169 11.6932C62.0137 11.2727 61.7827 10.9432 61.4759 10.7045C61.169 10.4659 60.7865 10.3466 60.3281 10.3466C59.8887 10.3466 59.5156 10.4621 59.2088 10.6932C58.902 10.9242 58.669 11.2481 58.5099 11.6648C58.3546 12.0814 58.277 12.572 58.277 13.1364ZM68.7713 17.6761C68.2183 17.6761 67.7202 17.5777 67.277 17.3807C66.8376 17.1799 66.4891 16.8845 66.2315 16.4943C65.9777 16.1042 65.8509 15.6231 65.8509 15.0511C65.8509 14.5587 65.9418 14.1515 66.1236 13.8295C66.3054 13.5076 66.5535 13.25 66.8679 13.0568C67.1823 12.8636 67.5365 12.7178 67.9304 12.6193C68.3281 12.517 68.7391 12.4432 69.1634 12.3977C69.6747 12.3447 70.0895 12.2973 70.4077 12.2557C70.7259 12.2102 70.9569 12.142 71.1009 12.0511C71.2486 11.9564 71.3224 11.8106 71.3224 11.6136V11.5795C71.3224 11.1515 71.1955 10.8201 70.9418 10.5852C70.688 10.3504 70.3224 10.233 69.8452 10.233C69.3414 10.233 68.9418 10.3428 68.6463 10.5625C68.3546 10.7822 68.1577 11.0417 68.0554 11.3409L66.1349 11.0682C66.2865 10.5379 66.5365 10.0947 66.8849 9.73864C67.2334 9.37879 67.6596 9.10985 68.1634 8.93182C68.6671 8.75 69.224 8.65909 69.8338 8.65909C70.2543 8.65909 70.6728 8.70833 71.0895 8.80682C71.5062 8.9053 71.8868 9.06818 72.2315 9.29545C72.5762 9.51894 72.8527 9.82386 73.0611 10.2102C73.2732 10.5966 73.3793 11.0795 73.3793 11.6591V17.5H71.402V16.3011H71.3338C71.2088 16.5436 71.0327 16.7708 70.8054 16.983C70.5819 17.1913 70.2997 17.3598 69.9588 17.4886C69.6217 17.6136 69.2259 17.6761 68.7713 17.6761ZM69.3054 16.1648C69.7183 16.1648 70.0762 16.0833 70.3793 15.9205C70.6823 15.7538 70.9152 15.5341 71.0781 15.2614C71.2448 14.9886 71.3281 14.6913 71.3281 14.3693V13.3409C71.2637 13.3939 71.1539 13.4432 70.9986 13.4886C70.8471 13.5341 70.6766 13.5739 70.4872 13.608C70.2978 13.642 70.1103 13.6723 69.9247 13.6989C69.7391 13.7254 69.5781 13.7481 69.4418 13.767C69.1349 13.8087 68.8603 13.8769 68.6179 13.9716C68.3755 14.0663 68.1842 14.1989 68.044 14.3693C67.9039 14.536 67.8338 14.7519 67.8338 15.017C67.8338 15.3958 67.9721 15.6818 68.2486 15.875C68.5251 16.0682 68.8774 16.1648 69.3054 16.1648ZM80.4702 15.108L83.0611 8.77273H84.7202L81.1918 17.5H79.7543L76.3054 8.77273H77.9474L80.4702 15.108ZM77.4304 8.77273V17.5H75.4474V8.77273H77.4304ZM83.5952 17.5V8.77273H85.5611V17.5H83.5952ZM91.4986 17.6705C90.6236 17.6705 89.8679 17.4886 89.2315 17.125C88.599 16.7576 88.1122 16.2386 87.7713 15.5682C87.4304 14.8939 87.2599 14.1004 87.2599 13.1875C87.2599 12.2898 87.4304 11.5019 87.7713 10.8239C88.116 10.142 88.5971 9.61174 89.2145 9.23295C89.8319 8.85038 90.5573 8.65909 91.3906 8.65909C91.9285 8.65909 92.4361 8.74621 92.9134 8.92045C93.3944 9.09091 93.8187 9.35606 94.1861 9.71591C94.5573 10.0758 94.849 10.5341 95.0611 11.0909C95.2732 11.6439 95.3793 12.303 95.3793 13.0682V13.6989H88.2259V12.3125H93.4077C93.4039 11.9186 93.3187 11.5682 93.152 11.2614C92.9853 10.9508 92.7524 10.7064 92.4531 10.5284C92.1577 10.3504 91.813 10.2614 91.419 10.2614C90.9986 10.2614 90.6293 10.3636 90.3111 10.5682C89.9929 10.7689 89.7448 11.0341 89.5668 11.3636C89.3925 11.6894 89.3035 12.0473 89.2997 12.4375V13.6477C89.2997 14.1553 89.3925 14.5909 89.5781 14.9545C89.7637 15.3144 90.0232 15.5909 90.3565 15.7841C90.6899 15.9735 91.08 16.0682 91.527 16.0682C91.8262 16.0682 92.0971 16.0265 92.3395 15.9432C92.5819 15.8561 92.7921 15.7292 92.9702 15.5625C93.1482 15.3958 93.2827 15.1894 93.3736 14.9432L95.294 15.1591C95.1728 15.6667 94.9418 16.1098 94.6009 16.4886C94.2637 16.8636 93.8319 17.1553 93.3054 17.3636C92.7789 17.5682 92.1766 17.6705 91.4986 17.6705ZM96.392 10.4602V8.77273H104.028V10.4602H101.205V17.5H99.2159V10.4602H96.392ZM105.666 20.7727V8.77273H107.689V10.2159H107.808C107.914 10.0038 108.064 9.77841 108.257 9.53977C108.45 9.29735 108.712 9.09091 109.041 8.92045C109.371 8.74621 109.791 8.65909 110.303 8.65909C110.977 8.65909 111.585 8.83144 112.126 9.17614C112.672 9.51705 113.104 10.0227 113.422 10.6932C113.744 11.3598 113.905 12.178 113.905 13.1477C113.905 14.1061 113.748 14.9205 113.433 15.5909C113.119 16.2614 112.691 16.7727 112.149 17.125C111.607 17.4773 110.994 17.6534 110.308 17.6534C109.808 17.6534 109.393 17.5701 109.064 17.4034C108.734 17.2367 108.469 17.036 108.268 16.8011C108.071 16.5625 107.918 16.3371 107.808 16.125H107.723V20.7727H105.666ZM107.683 13.1364C107.683 13.7008 107.763 14.1951 107.922 14.6193C108.085 15.0436 108.318 15.375 108.621 15.6136C108.928 15.8485 109.299 15.9659 109.734 15.9659C110.189 15.9659 110.57 15.8447 110.876 15.6023C111.183 15.3561 111.414 15.0208 111.57 14.5966C111.729 14.1686 111.808 13.6818 111.808 13.1364C111.808 12.5947 111.731 12.1136 111.575 11.6932C111.42 11.2727 111.189 10.9432 110.882 10.7045C110.575 10.4659 110.193 10.3466 109.734 10.3466C109.295 10.3466 108.922 10.4621 108.615 10.6932C108.308 10.9242 108.075 11.2481 107.916 11.6648C107.761 12.0814 107.683 12.572 107.683 13.1364Z" fill="#343434"/>
<circle cx="12" cy="46" r="12" fill="#FFE911"/>
<path d="M44.642 39.8636V51.5H42.5511V41.6136H37.4602V51.5H35.3693V39.8636H44.642ZM47.0724 54.7727V42.7727H49.0952V44.2159H49.2145C49.3205 44.0038 49.4702 43.7784 49.6634 43.5398C49.8565 43.2973 50.1179 43.0909 50.4474 42.9205C50.777 42.7462 51.1974 42.6591 51.7088 42.6591C52.383 42.6591 52.991 42.8314 53.5327 43.1761C54.0781 43.517 54.5099 44.0227 54.8281 44.6932C55.1501 45.3598 55.3111 46.178 55.3111 47.1477C55.3111 48.1061 55.1539 48.9205 54.8395 49.5909C54.5251 50.2614 54.0971 50.7727 53.5554 51.125C53.0137 51.4773 52.4001 51.6534 51.7145 51.6534C51.2145 51.6534 50.7997 51.5701 50.4702 51.4034C50.1406 51.2367 49.8755 51.036 49.6747 50.8011C49.4777 50.5625 49.3243 50.3371 49.2145 50.125H49.1293V54.7727H47.0724ZM49.0895 47.1364C49.0895 47.7008 49.169 48.1951 49.3281 48.6193C49.491 49.0436 49.724 49.375 50.027 49.6136C50.3338 49.8485 50.705 49.9659 51.1406 49.9659C51.5952 49.9659 51.9759 49.8447 52.2827 49.6023C52.5895 49.3561 52.8205 49.0208 52.9759 48.5966C53.1349 48.1686 53.2145 47.6818 53.2145 47.1364C53.2145 46.5947 53.1368 46.1136 52.9815 45.6932C52.8262 45.2727 52.5952 44.9432 52.2884 44.7045C51.9815 44.4659 51.599 44.3466 51.1406 44.3466C50.7012 44.3466 50.3281 44.4621 50.0213 44.6932C49.7145 44.9242 49.4815 45.2481 49.3224 45.6648C49.1671 46.0814 49.0895 46.572 49.0895 47.1364ZM60.9361 51.6705C60.0611 51.6705 59.3054 51.4886 58.669 51.125C58.0365 50.7576 57.5497 50.2386 57.2088 49.5682C56.8679 48.8939 56.6974 48.1004 56.6974 47.1875C56.6974 46.2898 56.8679 45.5019 57.2088 44.8239C57.5535 44.142 58.0346 43.6117 58.652 43.233C59.2694 42.8504 59.9948 42.6591 60.8281 42.6591C61.366 42.6591 61.8736 42.7462 62.3509 42.9205C62.8319 43.0909 63.2562 43.3561 63.6236 43.7159C63.9948 44.0758 64.2865 44.5341 64.4986 45.0909C64.7107 45.6439 64.8168 46.303 64.8168 47.0682V47.6989H57.6634V46.3125H62.8452C62.8414 45.9186 62.7562 45.5682 62.5895 45.2614C62.4228 44.9508 62.1899 44.7064 61.8906 44.5284C61.5952 44.3504 61.2505 44.2614 60.8565 44.2614C60.4361 44.2614 60.0668 44.3636 59.7486 44.5682C59.4304 44.7689 59.1823 45.0341 59.0043 45.3636C58.83 45.6894 58.741 46.0473 58.7372 46.4375V47.6477C58.7372 48.1553 58.83 48.5909 59.0156 48.9545C59.2012 49.3144 59.4607 49.5909 59.794 49.7841C60.1274 49.9735 60.5175 50.0682 60.9645 50.0682C61.2637 50.0682 61.5346 50.0265 61.777 49.9432C62.0194 49.8561 62.2296 49.7292 62.4077 49.5625C62.5857 49.3958 62.7202 49.1894 62.8111 48.9432L64.7315 49.1591C64.6103 49.6667 64.3793 50.1098 64.0384 50.4886C63.7012 50.8636 63.2694 51.1553 62.7429 51.3636C62.2164 51.5682 61.6141 51.6705 60.9361 51.6705ZM65.7841 54.0341V49.8068H66.4773C66.6629 49.6629 66.8182 49.4678 66.9432 49.2216C67.0682 48.9716 67.1705 48.678 67.25 48.3409C67.3333 48 67.4015 47.6193 67.4545 47.1989C67.5076 46.7746 67.5549 46.3182 67.5966 45.8295L67.8466 42.7727H74.1534V49.8068H75.5057V54.0341H73.517V51.5H67.8068V54.0341H65.7841ZM68.5909 49.8068H72.1875V44.4318H69.6307L69.4943 45.8295C69.4186 46.7538 69.3182 47.5455 69.1932 48.2045C69.0682 48.8636 68.8674 49.3977 68.5909 49.8068ZM78.3196 54.7727C78.0393 54.7727 77.7798 54.75 77.5412 54.7045C77.3063 54.6629 77.1188 54.6136 76.9787 54.5568L77.456 52.9545C77.7552 53.0417 78.0223 53.0833 78.2571 53.0795C78.492 53.0758 78.6984 53.0019 78.8764 52.858C79.0582 52.7178 79.2116 52.483 79.3366 52.1534L79.5128 51.6818L76.348 42.7727H78.5298L80.5412 49.3636H80.6321L82.6491 42.7727H84.8366L81.3423 52.5568C81.1795 53.0189 80.9635 53.4148 80.6946 53.7443C80.4257 54.0777 80.0961 54.3314 79.706 54.5057C79.3196 54.6837 78.8575 54.7727 78.3196 54.7727ZM86.2599 51.5V42.7727H93.6293V51.5H91.6463V44.4602H88.2259V51.5H86.2599ZM95.7443 54.7727V42.7727H97.767V44.2159H97.8864C97.9924 44.0038 98.142 43.7784 98.3352 43.5398C98.5284 43.2973 98.7898 43.0909 99.1193 42.9205C99.4489 42.7462 99.8693 42.6591 100.381 42.6591C101.055 42.6591 101.663 42.8314 102.205 43.1761C102.75 43.517 103.182 44.0227 103.5 44.6932C103.822 45.3598 103.983 46.178 103.983 47.1477C103.983 48.1061 103.826 48.9205 103.511 49.5909C103.197 50.2614 102.769 50.7727 102.227 51.125C101.686 51.4773 101.072 51.6534 100.386 51.6534C99.8864 51.6534 99.4716 51.5701 99.142 51.4034C98.8125 51.2367 98.5473 51.036 98.3466 50.8011C98.1496 50.5625 97.9962 50.3371 97.8864 50.125H97.8011V54.7727H95.7443ZM97.7614 47.1364C97.7614 47.7008 97.8409 48.1951 98 48.6193C98.1629 49.0436 98.3958 49.375 98.6989 49.6136C99.0057 49.8485 99.3769 49.9659 99.8125 49.9659C100.267 49.9659 100.648 49.8447 100.955 49.6023C101.261 49.3561 101.492 49.0208 101.648 48.5966C101.807 48.1686 101.886 47.6818 101.886 47.1364C101.886 46.5947 101.809 46.1136 101.653 45.6932C101.498 45.2727 101.267 44.9432 100.96 44.7045C100.653 44.4659 100.271 44.3466 99.8125 44.3466C99.3731 44.3466 99 44.4621 98.6932 44.6932C98.3864 44.9242 98.1534 45.2481 97.9943 45.6648C97.839 46.0814 97.7614 46.572 97.7614 47.1364ZM104.848 51.5L108.07 46.9943L104.876 42.7727H107.251L109.734 46.2898H110.223V42.7727H112.28V46.2898H112.757L115.24 42.7727H117.615L114.439 46.9943L117.643 51.5H115.217L112.734 47.9773H112.28V51.5H110.223V47.9773H109.768L107.274 51.5H104.848ZM118.409 54.0341V49.8068H119.102C119.288 49.6629 119.443 49.4678 119.568 49.2216C119.693 48.9716 119.795 48.678 119.875 48.3409C119.958 48 120.027 47.6193 120.08 47.1989C120.133 46.7746 120.18 46.3182 120.222 45.8295L120.472 42.7727H126.778V49.8068H128.131V54.0341H126.142V51.5H120.432V54.0341H118.409ZM121.216 49.8068H124.812V44.4318H122.256L122.119 45.8295C122.044 46.7538 121.943 47.5455 121.818 48.2045C121.693 48.8636 121.492 49.3977 121.216 49.8068ZM133.53 51.6705C132.655 51.6705 131.899 51.4886 131.263 51.125C130.63 50.7576 130.143 50.2386 129.803 49.5682C129.462 48.8939 129.291 48.1004 129.291 47.1875C129.291 46.2898 129.462 45.5019 129.803 44.8239C130.147 44.142 130.628 43.6117 131.246 43.233C131.863 42.8504 132.589 42.6591 133.422 42.6591C133.96 42.6591 134.467 42.7462 134.945 42.9205C135.426 43.0909 135.85 43.3561 136.217 43.7159C136.589 44.0758 136.88 44.5341 137.092 45.0909C137.304 45.6439 137.411 46.303 137.411 47.0682V47.6989H130.257V46.3125H135.439C135.435 45.9186 135.35 45.5682 135.183 45.2614C135.017 44.9508 134.784 44.7064 134.484 44.5284C134.189 44.3504 133.844 44.2614 133.45 44.2614C133.03 44.2614 132.661 44.3636 132.342 44.5682C132.024 44.7689 131.776 45.0341 131.598 45.3636C131.424 45.6894 131.335 46.0473 131.331 46.4375V47.6477C131.331 48.1553 131.424 48.5909 131.609 48.9545C131.795 49.3144 132.054 49.5909 132.388 49.7841C132.721 49.9735 133.111 50.0682 133.558 50.0682C133.857 50.0682 134.128 50.0265 134.371 49.9432C134.613 49.8561 134.823 49.7292 135.001 49.5625C135.179 49.3958 135.314 49.1894 135.405 48.9432L137.325 49.1591C137.204 49.6667 136.973 50.1098 136.632 50.4886C136.295 50.8636 135.863 51.1553 135.337 51.3636C134.81 51.5682 134.208 51.6705 133.53 51.6705ZM145.145 46.2841V47.9716H140.497V46.2841H145.145ZM141.134 42.7727V51.5H139.151V42.7727H141.134ZM146.491 42.7727V51.5H144.514V42.7727H146.491ZM150.555 48.7159L154.05 42.7727H156.163V51.5H154.175V45.5511L150.692 51.5H148.572V42.7727H150.555V48.7159ZM162.139 51.6705C161.264 51.6705 160.509 51.4886 159.872 51.125C159.24 50.7576 158.753 50.2386 158.412 49.5682C158.071 48.8939 157.901 48.1004 157.901 47.1875C157.901 46.2898 158.071 45.5019 158.412 44.8239C158.757 44.142 159.238 43.6117 159.855 43.233C160.473 42.8504 161.198 42.6591 162.031 42.6591C162.569 42.6591 163.077 42.7462 163.554 42.9205C164.035 43.0909 164.459 43.3561 164.827 43.7159C165.198 44.0758 165.49 44.5341 165.702 45.0909C165.914 45.6439 166.02 46.303 166.02 47.0682V47.6989H158.866V46.3125H164.048C164.045 45.9186 163.959 45.5682 163.793 45.2614C163.626 44.9508 163.393 44.7064 163.094 44.5284C162.798 44.3504 162.454 44.2614 162.06 44.2614C161.639 44.2614 161.27 44.3636 160.952 44.5682C160.634 44.7689 160.385 45.0341 160.207 45.3636C160.033 45.6894 159.944 46.0473 159.94 46.4375V47.6477C159.94 48.1553 160.033 48.5909 160.219 48.9545C160.404 49.3144 160.664 49.5909 160.997 49.7841C161.33 49.9735 161.721 50.0682 162.168 50.0682C162.467 50.0682 162.738 50.0265 162.98 49.9432C163.223 49.8561 163.433 49.7292 163.611 49.5625C163.789 49.3958 163.923 49.1894 164.014 48.9432L165.935 49.1591C165.813 49.6667 165.582 50.1098 165.241 50.4886C164.904 50.8636 164.473 51.1553 163.946 51.3636C163.42 51.5682 162.817 51.6705 162.139 51.6705Z" fill="#343434"/>
<circle cx="12" cy="80" r="12" fill="#E01B2C"/>
<path d="M45.5455 79.6818C45.5455 80.9356 45.3106 82.0095 44.8409 82.9034C44.375 83.7936 43.7386 84.4754 42.9318 84.9489C42.1288 85.4223 41.2178 85.6591 40.1989 85.6591C39.1799 85.6591 38.267 85.4223 37.4602 84.9489C36.6572 84.4716 36.0208 83.7879 35.5511 82.8977C35.0852 82.0038 34.8523 80.9318 34.8523 79.6818C34.8523 78.428 35.0852 77.3561 35.5511 76.4659C36.0208 75.572 36.6572 74.8883 37.4602 74.4148C38.267 73.9413 39.1799 73.7045 40.1989 73.7045C41.2178 73.7045 42.1288 73.9413 42.9318 74.4148C43.7386 74.8883 44.375 75.572 44.8409 76.4659C45.3106 77.3561 45.5455 78.428 45.5455 79.6818ZM43.4261 79.6818C43.4261 78.7992 43.2879 78.0549 43.0114 77.4489C42.7386 76.839 42.3598 76.3788 41.875 76.0682C41.3902 75.7538 40.8314 75.5966 40.1989 75.5966C39.5663 75.5966 39.0076 75.7538 38.5227 76.0682C38.0379 76.3788 37.6572 76.839 37.3807 77.4489C37.108 78.0549 36.9716 78.7992 36.9716 79.6818C36.9716 80.5644 37.108 81.3106 37.3807 81.9205C37.6572 82.5265 38.0379 82.9867 38.5227 83.3011C39.0076 83.6117 39.5663 83.767 40.1989 83.767C40.8314 83.767 41.3902 83.6117 41.875 83.3011C42.3598 82.9867 42.7386 82.5265 43.0114 81.9205C43.2879 81.3106 43.4261 80.5644 43.4261 79.6818ZM51.2543 85.6705C50.383 85.6705 49.6349 85.4792 49.0099 85.0966C48.3887 84.714 47.9096 84.1856 47.5724 83.5114C47.2391 82.8333 47.0724 82.053 47.0724 81.1705C47.0724 80.2841 47.2429 79.5019 47.5838 78.8239C47.9247 78.142 48.4058 77.6117 49.027 77.233C49.652 76.8504 50.3906 76.6591 51.2429 76.6591C51.9512 76.6591 52.5781 76.7898 53.1236 77.0511C53.6728 77.3087 54.1103 77.6742 54.4361 78.1477C54.7618 78.6174 54.9474 79.1667 54.9929 79.7955H53.027C52.9474 79.375 52.758 79.0246 52.4588 78.7443C52.1634 78.4602 51.7675 78.3182 51.2713 78.3182C50.8509 78.3182 50.4815 78.4318 50.1634 78.6591C49.8452 78.8826 49.5971 79.2045 49.419 79.625C49.2448 80.0455 49.1577 80.5492 49.1577 81.1364C49.1577 81.7311 49.2448 82.2424 49.419 82.6705C49.5933 83.0947 49.8376 83.4223 50.152 83.6534C50.4702 83.8807 50.8433 83.9943 51.2713 83.9943C51.5743 83.9943 51.8452 83.9375 52.0838 83.8239C52.3262 83.7064 52.5289 83.5379 52.6918 83.3182C52.8546 83.0985 52.9664 82.8314 53.027 82.517H54.9929C54.9437 83.1345 54.7618 83.6818 54.4474 84.1591C54.133 84.6326 53.705 85.0038 53.1634 85.2727C52.6217 85.5379 51.9853 85.6705 51.2543 85.6705ZM56.0483 78.4602V76.7727H63.6847V78.4602H60.8608V85.5H58.8722V78.4602H56.0483ZM67.4744 85.6761C66.9214 85.6761 66.4233 85.5777 65.9801 85.3807C65.5407 85.1799 65.1922 84.8845 64.9347 84.4943C64.6809 84.1042 64.554 83.6231 64.554 83.0511C64.554 82.5587 64.6449 82.1515 64.8267 81.8295C65.0085 81.5076 65.2566 81.25 65.571 81.0568C65.8854 80.8636 66.2396 80.7178 66.6335 80.6193C67.0313 80.517 67.4422 80.4432 67.8665 80.3977C68.3778 80.3447 68.7926 80.2973 69.1108 80.2557C69.429 80.2102 69.66 80.142 69.804 80.0511C69.9517 79.9564 70.0256 79.8106 70.0256 79.6136V79.5795C70.0256 79.1515 69.8987 78.8201 69.6449 78.5852C69.3911 78.3504 69.0256 78.233 68.5483 78.233C68.0445 78.233 67.6449 78.3428 67.3494 78.5625C67.0578 78.7822 66.8608 79.0417 66.7585 79.3409L64.8381 79.0682C64.9896 78.5379 65.2396 78.0947 65.5881 77.7386C65.9366 77.3788 66.3627 77.1098 66.8665 76.9318C67.3703 76.75 67.9271 76.6591 68.5369 76.6591C68.9574 76.6591 69.3759 76.7083 69.7926 76.8068C70.2093 76.9053 70.59 77.0682 70.9347 77.2955C71.2794 77.5189 71.5559 77.8239 71.7642 78.2102C71.9763 78.5966 72.0824 79.0795 72.0824 79.6591V85.5H70.1051V84.3011H70.0369C69.9119 84.5436 69.7358 84.7708 69.5085 84.983C69.285 85.1913 69.0028 85.3598 68.6619 85.4886C68.3248 85.6136 67.929 85.6761 67.4744 85.6761ZM68.0085 84.1648C68.4214 84.1648 68.7794 84.0833 69.0824 83.9205C69.3854 83.7538 69.6184 83.5341 69.7812 83.2614C69.9479 82.9886 70.0312 82.6913 70.0312 82.3693V81.3409C69.9669 81.3939 69.857 81.4432 69.7017 81.4886C69.5502 81.5341 69.3797 81.5739 69.1903 81.608C69.0009 81.642 68.8134 81.6723 68.6278 81.6989C68.4422 81.7254 68.2813 81.7481 68.1449 81.767C67.8381 81.8087 67.5634 81.8769 67.321 81.9716C67.0786 82.0663 66.8873 82.1989 66.7472 82.3693C66.607 82.536 66.5369 82.7519 66.5369 83.017C66.5369 83.3958 66.6752 83.6818 66.9517 83.875C67.2282 84.0682 67.5805 84.1648 68.0085 84.1648ZM80.1449 80.2841V81.9716H75.4972V80.2841H80.1449ZM76.1335 76.7727V85.5H74.1506V76.7727H76.1335ZM81.4915 76.7727V85.5H79.5142V76.7727H81.4915ZM87.3793 85.6705C86.527 85.6705 85.7884 85.483 85.1634 85.108C84.5384 84.733 84.0535 84.2083 83.7088 83.5341C83.3679 82.8598 83.1974 82.072 83.1974 81.1705C83.1974 80.2689 83.3679 79.4792 83.7088 78.8011C84.0535 78.1231 84.5384 77.5966 85.1634 77.2216C85.7884 76.8466 86.527 76.6591 87.3793 76.6591C88.2315 76.6591 88.9702 76.8466 89.5952 77.2216C90.2202 77.5966 90.7031 78.1231 91.044 78.8011C91.3887 79.4792 91.5611 80.2689 91.5611 81.1705C91.5611 82.072 91.3887 82.8598 91.044 83.5341C90.7031 84.2083 90.2202 84.733 89.5952 85.108C88.9702 85.483 88.2315 85.6705 87.3793 85.6705ZM87.3906 84.0227C87.8527 84.0227 88.2391 83.8958 88.5497 83.642C88.8603 83.3845 89.0914 83.0398 89.2429 82.608C89.3982 82.1761 89.4759 81.6951 89.4759 81.1648C89.4759 80.6307 89.3982 80.1477 89.2429 79.7159C89.0914 79.2803 88.8603 78.9337 88.5497 78.6761C88.2391 78.4186 87.8527 78.2898 87.3906 78.2898C86.9171 78.2898 86.5232 78.4186 86.2088 78.6761C85.8982 78.9337 85.6652 79.2803 85.5099 79.7159C85.3584 80.1477 85.2827 80.6307 85.2827 81.1648C85.2827 81.6951 85.3584 82.1761 85.5099 82.608C85.6652 83.0398 85.8982 83.3845 86.2088 83.642C86.5232 83.8958 86.9171 84.0227 87.3906 84.0227ZM93.3068 85.5V76.7727H96.9716C98.0057 76.7727 98.822 76.9792 99.4205 77.392C100.023 77.8049 100.324 78.3807 100.324 79.1193C100.324 79.608 100.153 80.0076 99.8125 80.3182C99.4754 80.625 99.0152 80.8314 98.4318 80.9375C98.8902 80.9754 99.2917 81.0909 99.6364 81.2841C99.9848 81.4773 100.258 81.7311 100.455 82.0455C100.652 82.3598 100.75 82.7216 100.75 83.1307C100.75 83.6117 100.623 84.0303 100.369 84.3864C100.119 84.7386 99.7538 85.0133 99.2727 85.2102C98.7955 85.4034 98.2159 85.5 97.5341 85.5H93.3068ZM95.233 83.8807H97.5341C97.9129 83.8807 98.2102 83.7917 98.4261 83.6136C98.642 83.4318 98.75 83.1856 98.75 82.875C98.75 82.5152 98.642 82.233 98.4261 82.0284C98.2102 81.8201 97.9129 81.7159 97.5341 81.7159H95.233V83.8807ZM95.233 80.3864H97.0114C97.2917 80.3864 97.5322 80.3466 97.733 80.267C97.9337 80.1837 98.0871 80.0682 98.1932 79.9205C98.2992 79.7689 98.3523 79.589 98.3523 79.3807C98.3523 79.0814 98.2292 78.8466 97.983 78.6761C97.7405 78.5057 97.4034 78.4205 96.9716 78.4205H95.233V80.3864ZM102.447 85.5V76.7727H104.504V80.2955H105.254L107.879 76.7727H110.357L107.124 81.0568L110.391 85.5H107.902L105.51 82.2102H104.504V85.5H102.447ZM114.068 85.6761C113.515 85.6761 113.017 85.5777 112.574 85.3807C112.134 85.1799 111.786 84.8845 111.528 84.4943C111.275 84.1042 111.148 83.6231 111.148 83.0511C111.148 82.5587 111.239 82.1515 111.42 81.8295C111.602 81.5076 111.85 81.25 112.165 81.0568C112.479 80.8636 112.833 80.7178 113.227 80.6193C113.625 80.517 114.036 80.4432 114.46 80.3977C114.972 80.3447 115.386 80.2973 115.705 80.2557C116.023 80.2102 116.254 80.142 116.398 80.0511C116.545 79.9564 116.619 79.8106 116.619 79.6136V79.5795C116.619 79.1515 116.492 78.8201 116.239 78.5852C115.985 78.3504 115.619 78.233 115.142 78.233C114.638 78.233 114.239 78.3428 113.943 78.5625C113.652 78.7822 113.455 79.0417 113.352 79.3409L111.432 79.0682C111.583 78.5379 111.833 78.0947 112.182 77.7386C112.53 77.3788 112.956 77.1098 113.46 76.9318C113.964 76.75 114.521 76.6591 115.131 76.6591C115.551 76.6591 115.97 76.7083 116.386 76.8068C116.803 76.9053 117.184 77.0682 117.528 77.2955C117.873 77.5189 118.15 77.8239 118.358 78.2102C118.57 78.5966 118.676 79.0795 118.676 79.6591V85.5H116.699V84.3011H116.631C116.506 84.5436 116.33 84.7708 116.102 84.983C115.879 85.1913 115.597 85.3598 115.256 85.4886C114.919 85.6136 114.523 85.6761 114.068 85.6761ZM114.602 84.1648C115.015 84.1648 115.373 84.0833 115.676 83.9205C115.979 83.7538 116.212 83.5341 116.375 83.2614C116.542 82.9886 116.625 82.6913 116.625 82.3693V81.3409C116.561 81.3939 116.451 81.4432 116.295 81.4886C116.144 81.5341 115.973 81.5739 115.784 81.608C115.595 81.642 115.407 81.6723 115.222 81.6989C115.036 81.7254 114.875 81.7481 114.739 81.767C114.432 81.8087 114.157 81.8769 113.915 81.9716C113.672 82.0663 113.481 82.1989 113.341 82.3693C113.201 82.536 113.131 82.7519 113.131 83.017C113.131 83.3958 113.269 83.6818 113.545 83.875C113.822 84.0682 114.174 84.1648 114.602 84.1648Z" fill="#343434"/>
</svg>
