<?xml version="1.0" encoding="UTF-8"?>
<svg id="Layer_1" data-name="Layer 1" xmlns="http://www.w3.org/2000/svg" viewBox="0 0 1438.11 483.01">
  <defs>
    <style>
      .cls-1 {
        fill: #0066f3;
      }

      .cls-2 {
        fill: #7aadf3;
      }

      .cls-3 {
        fill: rgba(122, 173, 243, .4);
      }

      .cls-4 {
        stroke: #ffe911;
      }

      .cls-4, .cls-5, .cls-6 {
        fill: none;
        stroke-width: 6px;
      }

      .cls-5 {
        stroke: #0c89cb;
      }

      .cls-6 {
        stroke: #e01b2c;
      }
    </style>
  </defs>
  <path class="cls-2" d="M219.47,483.01c-.86,0-1.59-.23-2.19-.7-.6-.47-1.06-1.15-1.38-2.04-.32-.89-.48-1.97-.48-3.24s.16-2.33,.48-3.22c.32-.89,.78-1.58,1.39-2.04,.61-.47,1.33-.71,2.18-.71s1.57,.24,2.18,.71c.61,.47,1.07,1.15,1.39,2.04,.32,.89,.48,1.96,.48,3.22s-.16,2.35-.48,3.24c-.32,.89-.78,1.57-1.38,2.04-.6,.47-1.33,.7-2.19,.7Zm0-1.25c.85,0,1.51-.41,1.98-1.23s.7-1.99,.7-3.5c0-1.01-.11-1.87-.32-2.57-.21-.71-.52-1.25-.92-1.62-.4-.37-.88-.56-1.44-.56-.84,0-1.5,.41-1.97,1.24-.47,.83-.71,1.99-.71,3.51,0,1.01,.11,1.86,.32,2.57,.21,.7,.52,1.24,.91,1.61,.4,.37,.88,.55,1.45,.55Zm9.84,1.25c-.67,0-1.27-.13-1.8-.4-.53-.26-.96-.63-1.28-1.09-.32-.46-.5-.99-.53-1.58h1.36c.05,.53,.29,.96,.72,1.31,.43,.34,.94,.51,1.53,.51,.48,0,.9-.11,1.27-.33,.38-.22,.67-.53,.88-.92,.22-.39,.32-.84,.32-1.34s-.11-.96-.33-1.36c-.22-.4-.52-.72-.91-.95-.39-.23-.83-.35-1.32-.35-.36,0-.72,.05-1.1,.17-.38,.11-.68,.25-.93,.43l-1.32-.16,.7-5.73h6.05v1.25h-4.86l-.41,3.43h.07c.24-.19,.54-.35,.9-.47s.74-.19,1.12-.19c.71,0,1.35,.17,1.9,.51,.56,.34,1,.8,1.32,1.39,.32,.59,.48,1.26,.48,2.01s-.17,1.41-.5,1.99c-.33,.58-.78,1.04-1.36,1.38-.58,.33-1.24,.5-1.98,.5Zm6.66-.07c-.28,0-.52-.1-.72-.3-.2-.2-.3-.44-.3-.72s.1-.52,.3-.72c.2-.2,.44-.3,.72-.3s.52,.1,.72,.3c.2,.2,.3,.44,.3,.72,0,.19-.05,.36-.14,.51-.09,.15-.21,.28-.37,.38-.15,.09-.32,.14-.51,.14Zm6.79,.07c-.86,0-1.58-.23-2.19-.7-.6-.47-1.06-1.15-1.38-2.04-.32-.89-.48-1.97-.48-3.24s.16-2.33,.48-3.22c.32-.89,.78-1.58,1.39-2.04,.61-.47,1.33-.71,2.18-.71s1.57,.24,2.18,.71c.61,.47,1.07,1.15,1.39,2.04,.32,.89,.48,1.96,.48,3.22s-.16,2.35-.48,3.24c-.32,.89-.78,1.57-1.38,2.04-.6,.47-1.33,.7-2.19,.7Zm0-1.25c.85,0,1.51-.41,1.98-1.23,.47-.82,.7-1.99,.7-3.5,0-1.01-.11-1.87-.32-2.57-.21-.71-.52-1.25-.92-1.62-.4-.37-.88-.56-1.44-.56-.84,0-1.5,.41-1.97,1.24-.47,.83-.71,1.99-.71,3.51,0,1.01,.11,1.86,.32,2.57,.21,.7,.52,1.24,.91,1.61,.4,.37,.88,.55,1.45,.55Zm5.93-1.29v-1.16l5.11-8.09h.84v1.79h-.57l-3.86,6.11v.09h6.89v1.25h-8.41Zm5.48,2.39v-11.64h1.34v11.64h-1.34Zm5.51,.09c-.28,0-.52-.1-.72-.3s-.3-.44-.3-.72,.1-.52,.3-.72c.2-.2,.44-.3,.72-.3s.52,.1,.72,.3c.2,.2,.3,.44,.3,.72,0,.19-.05,.36-.14,.51-.09,.15-.21,.28-.37,.38-.15,.09-.32,.14-.51,.14Zm3.41-.09v-1.02l3.84-4.2c.45-.49,.82-.92,1.11-1.28,.29-.37,.51-.71,.65-1.03,.14-.33,.22-.67,.22-1.02,0-.41-.1-.76-.29-1.06-.19-.3-.46-.53-.8-.69-.34-.16-.72-.24-1.14-.24-.45,0-.84,.09-1.17,.28-.33,.18-.59,.44-.77,.77-.18,.33-.27,.72-.27,1.16h-1.34c0-.68,.16-1.28,.47-1.79,.31-.52,.74-.92,1.28-1.21,.55-.29,1.16-.43,1.84-.43s1.29,.14,1.81,.43c.53,.29,.94,.68,1.24,1.17,.3,.49,.45,1.03,.45,1.63,0,.43-.08,.85-.23,1.26-.15,.4-.42,.86-.8,1.36-.38,.5-.9,1.1-1.56,1.82l-2.61,2.79v.09h5.41v1.25h-7.34Zm13.62,.16c-.75,0-1.42-.13-2-.39-.58-.26-1.05-.62-1.39-1.07-.34-.46-.53-1-.56-1.61h1.43c.03,.38,.16,.7,.39,.97,.23,.27,.52,.48,.89,.63,.37,.15,.77,.22,1.22,.22,.5,0,.94-.09,1.33-.26,.39-.18,.69-.42,.91-.73,.22-.31,.33-.67,.33-1.08s-.11-.8-.32-1.13c-.21-.33-.52-.59-.93-.77-.41-.19-.91-.28-1.5-.28h-.93v-1.25h.93c.46,0,.87-.08,1.22-.25,.35-.17,.63-.4,.82-.7,.2-.3,.3-.66,.3-1.07s-.09-.74-.26-1.03c-.17-.29-.42-.52-.74-.68-.32-.16-.69-.24-1.11-.24-.4,0-.78,.07-1.14,.22-.35,.14-.64,.35-.86,.63-.22,.27-.35,.6-.36,.99h-1.36c.02-.61,.21-1.14,.55-1.6,.35-.46,.8-.82,1.35-1.08,.56-.26,1.18-.39,1.85-.39,.72,0,1.34,.15,1.85,.44,.52,.29,.91,.67,1.19,1.14,.28,.47,.41,.99,.41,1.53,0,.65-.17,1.21-.52,1.68-.34,.46-.8,.78-1.39,.96v.09c.74,.12,1.31,.43,1.72,.94,.41,.5,.62,1.12,.62,1.86,0,.63-.17,1.2-.52,1.7-.34,.5-.81,.89-1.4,1.18-.59,.29-1.26,.43-2.02,.43Z"/>
  <path class="cls-2" d="M390.85,471.21v11.64h-1.41v-10.16h-.07l-2.84,1.89v-1.43l2.91-1.93h1.41Zm3.35,11.64v-1.02l3.84-4.2c.45-.49,.82-.92,1.11-1.28,.29-.37,.51-.71,.65-1.03,.14-.33,.22-.67,.22-1.02,0-.41-.1-.76-.3-1.06-.19-.3-.46-.53-.79-.69s-.72-.24-1.14-.24c-.45,0-.84,.09-1.17,.28-.33,.18-.58,.44-.77,.77-.18,.33-.27,.72-.27,1.16h-1.34c0-.68,.16-1.28,.47-1.79,.31-.52,.74-.92,1.28-1.21,.54-.29,1.16-.43,1.83-.43s1.29,.14,1.81,.43c.53,.29,.94,.68,1.24,1.17,.3,.49,.45,1.03,.45,1.63,0,.43-.08,.85-.23,1.26-.15,.4-.42,.86-.8,1.36-.38,.5-.9,1.1-1.56,1.82l-2.61,2.79v.09h5.41v1.25h-7.34Zm10.69,.09c-.28,0-.52-.1-.72-.3-.2-.2-.3-.44-.3-.72s.1-.52,.3-.72,.44-.3,.72-.3,.52,.1,.72,.3c.2,.2,.3,.44,.3,.72,0,.19-.05,.36-.14,.51-.09,.15-.21,.28-.37,.38-.15,.09-.32,.14-.51,.14Zm6.8,.07c-.86,0-1.59-.23-2.19-.7-.6-.47-1.06-1.15-1.38-2.04-.32-.89-.48-1.97-.48-3.24s.16-2.33,.48-3.22c.32-.89,.78-1.58,1.39-2.04,.61-.47,1.33-.71,2.18-.71s1.57,.24,2.18,.71c.61,.47,1.07,1.15,1.39,2.04,.32,.89,.48,1.96,.48,3.22s-.16,2.35-.48,3.24c-.32,.89-.78,1.57-1.38,2.04-.6,.47-1.33,.7-2.19,.7Zm0-1.25c.85,0,1.51-.41,1.98-1.23,.47-.82,.7-1.99,.7-3.5,0-1.01-.11-1.87-.32-2.57-.21-.71-.52-1.25-.92-1.62-.4-.37-.88-.56-1.44-.56-.84,0-1.5,.41-1.97,1.24-.47,.83-.71,1.99-.71,3.51,0,1.01,.11,1.86,.32,2.57s.52,1.24,.92,1.61c.4,.37,.88,.55,1.45,.55Zm5.93-1.29v-1.16l5.11-8.09h.84v1.79h-.57l-3.86,6.11v.09h6.89v1.25h-8.41Zm5.48,2.39v-11.64h1.34v11.64h-1.34Zm5.51,.09c-.28,0-.52-.1-.72-.3s-.3-.44-.3-.72,.1-.52,.3-.72c.2-.2,.44-.3,.72-.3s.52,.1,.72,.3c.2,.2,.3,.44,.3,.72,0,.19-.05,.36-.14,.51-.09,.15-.21,.28-.37,.38-.15,.09-.32,.14-.51,.14Zm3.41-.09v-1.02l3.84-4.2c.45-.49,.82-.92,1.11-1.28,.29-.37,.51-.71,.65-1.03,.14-.33,.22-.67,.22-1.02,0-.41-.1-.76-.29-1.06-.19-.3-.46-.53-.8-.69-.34-.16-.72-.24-1.14-.24-.45,0-.84,.09-1.17,.28-.33,.18-.59,.44-.77,.77-.18,.33-.27,.72-.27,1.16h-1.34c0-.68,.16-1.28,.47-1.79,.31-.52,.74-.92,1.28-1.21,.55-.29,1.16-.43,1.84-.43s1.29,.14,1.81,.43c.53,.29,.94,.68,1.24,1.17,.3,.49,.45,1.03,.45,1.63,0,.43-.08,.85-.23,1.26-.15,.4-.42,.86-.8,1.36-.38,.5-.9,1.1-1.56,1.82l-2.61,2.79v.09h5.41v1.25h-7.34Zm13.62,.16c-.75,0-1.42-.13-2-.39-.58-.26-1.05-.62-1.39-1.07-.34-.46-.53-1-.56-1.61h1.43c.03,.38,.16,.7,.39,.97,.23,.27,.52,.48,.89,.63,.37,.15,.77,.22,1.22,.22,.5,0,.94-.09,1.33-.26,.39-.18,.69-.42,.91-.73,.22-.31,.33-.67,.33-1.08s-.11-.8-.32-1.13c-.21-.33-.52-.59-.93-.77-.41-.19-.91-.28-1.5-.28h-.93v-1.25h.93c.46,0,.87-.08,1.22-.25,.35-.17,.63-.4,.82-.7,.2-.3,.3-.66,.3-1.07s-.09-.74-.26-1.03c-.17-.29-.42-.52-.74-.68-.32-.16-.69-.24-1.11-.24-.4,0-.78,.07-1.14,.22-.35,.14-.64,.35-.86,.63-.22,.27-.35,.6-.36,.99h-1.36c.02-.61,.21-1.14,.55-1.6,.35-.46,.8-.82,1.35-1.08,.56-.26,1.18-.39,1.85-.39,.72,0,1.34,.15,1.85,.44,.52,.29,.91,.67,1.19,1.14,.28,.47,.41,.99,.41,1.53,0,.65-.17,1.21-.52,1.68-.34,.46-.8,.78-1.39,.96v.09c.74,.12,1.31,.43,1.72,.94,.41,.5,.62,1.12,.62,1.86,0,.63-.17,1.2-.52,1.7-.34,.5-.81,.89-1.4,1.18-.59,.29-1.26,.43-2.02,.43Z"/>
  <path class="cls-2" d="M559.9,471.21v11.64h-1.41v-10.16h-.07l-2.84,1.89v-1.43l2.91-1.93h1.41Zm7.05-.16c.48,0,.95,.09,1.43,.27,.48,.18,.91,.47,1.31,.89,.39,.41,.71,.97,.95,1.68,.24,.71,.36,1.6,.36,2.66s-.1,1.95-.29,2.76c-.19,.8-.47,1.47-.84,2.02-.36,.55-.81,.97-1.33,1.25-.52,.28-1.11,.43-1.76,.43s-1.23-.13-1.74-.39c-.51-.26-.93-.62-1.25-1.09-.32-.47-.53-1.01-.62-1.62h1.39c.12,.53,.37,.98,.74,1.32,.38,.35,.87,.52,1.48,.52,.9,0,1.61-.39,2.12-1.18,.52-.78,.78-1.89,.78-3.32h-.09c-.21,.32-.46,.59-.76,.82-.29,.23-.61,.41-.97,.53-.36,.12-.73,.19-1.14,.19-.67,0-1.28-.16-1.84-.49-.55-.33-1-.79-1.33-1.37-.33-.58-.49-1.25-.49-2s.16-1.36,.48-1.96c.32-.59,.77-1.07,1.35-1.42,.58-.35,1.27-.52,2.06-.51Zm0,1.25c-.48,0-.91,.12-1.29,.36-.38,.23-.68,.55-.9,.95-.22,.4-.33,.84-.33,1.32s.11,.93,.32,1.32c.22,.39,.51,.71,.88,.94,.38,.23,.8,.35,1.28,.35,.36,0,.69-.07,1.01-.21,.31-.14,.58-.34,.81-.58,.23-.25,.42-.53,.55-.85,.13-.32,.2-.65,.2-.99,0-.45-.11-.88-.33-1.28-.22-.4-.51-.72-.9-.97-.38-.25-.81-.37-1.29-.37Zm6.87,10.64c-.28,0-.52-.1-.72-.3-.2-.2-.3-.44-.3-.72s.1-.52,.3-.72c.2-.2,.44-.3,.72-.3s.52,.1,.72,.3c.2,.2,.3,.44,.3,.72,0,.19-.05,.36-.14,.51-.09,.15-.21,.28-.37,.38-.15,.09-.32,.14-.51,.14Zm6.8,.07c-.86,0-1.59-.23-2.19-.7-.6-.47-1.06-1.15-1.38-2.04-.32-.89-.48-1.97-.48-3.24s.16-2.33,.48-3.22c.32-.89,.78-1.58,1.39-2.04,.61-.47,1.33-.71,2.18-.71s1.57,.24,2.18,.71c.61,.47,1.07,1.15,1.39,2.04,.32,.89,.48,1.96,.48,3.22s-.16,2.35-.48,3.24c-.32,.89-.78,1.57-1.38,2.04-.6,.47-1.33,.7-2.19,.7Zm0-1.25c.85,0,1.51-.41,1.98-1.23,.47-.82,.71-1.99,.71-3.5,0-1.01-.11-1.87-.32-2.57-.21-.71-.52-1.25-.92-1.62-.4-.37-.88-.56-1.44-.56-.84,0-1.5,.41-1.97,1.24-.47,.83-.71,1.99-.71,3.51,0,1.01,.11,1.86,.32,2.57,.21,.7,.52,1.24,.92,1.61,.4,.37,.88,.55,1.45,.55Zm5.93-1.29v-1.16l5.11-8.09h.84v1.79h-.57l-3.86,6.11v.09h6.89v1.25h-8.41Zm5.48,2.39v-11.64h1.34v11.64h-1.34Zm5.51,.09c-.28,0-.52-.1-.72-.3-.2-.2-.3-.44-.3-.72s.1-.52,.3-.72c.2-.2,.44-.3,.72-.3s.52,.1,.72,.3,.3,.44,.3,.72c0,.19-.05,.36-.14,.51-.09,.15-.21,.28-.37,.38-.15,.09-.32,.14-.51,.14Zm3.41-.09v-1.02l3.84-4.2c.45-.49,.82-.92,1.11-1.28,.29-.37,.51-.71,.65-1.03,.14-.33,.22-.67,.22-1.02,0-.41-.1-.76-.3-1.06-.19-.3-.46-.53-.79-.69s-.72-.24-1.14-.24c-.45,0-.84,.09-1.17,.28-.33,.18-.59,.44-.77,.77-.18,.33-.27,.72-.27,1.16h-1.34c0-.68,.16-1.28,.47-1.79,.32-.52,.74-.92,1.28-1.21,.55-.29,1.16-.43,1.84-.43s1.29,.14,1.81,.43c.53,.29,.94,.68,1.24,1.17,.3,.49,.45,1.03,.45,1.63,0,.43-.08,.85-.23,1.26-.15,.4-.42,.86-.8,1.36-.38,.5-.9,1.1-1.56,1.82l-2.61,2.79v.09h5.41v1.25h-7.34Zm13.62,.16c-.75,0-1.42-.13-2.01-.39-.58-.26-1.05-.62-1.39-1.07-.34-.46-.53-1-.56-1.61h1.43c.03,.38,.16,.7,.39,.97,.23,.27,.52,.48,.89,.63,.37,.15,.78,.22,1.22,.22,.5,0,.94-.09,1.33-.26,.39-.18,.69-.42,.91-.73,.22-.31,.33-.67,.33-1.08s-.11-.8-.32-1.13c-.21-.33-.52-.59-.93-.77-.41-.19-.91-.28-1.5-.28h-.93v-1.25h.93c.46,0,.87-.08,1.22-.25,.35-.17,.63-.4,.82-.7,.2-.3,.3-.66,.3-1.07s-.09-.74-.26-1.03c-.17-.29-.42-.52-.74-.68-.31-.16-.69-.24-1.11-.24-.4,0-.78,.07-1.14,.22-.35,.14-.64,.35-.86,.63-.22,.27-.34,.6-.36,.99h-1.36c.02-.61,.21-1.14,.55-1.6,.35-.46,.8-.82,1.35-1.08,.56-.26,1.18-.39,1.85-.39,.72,0,1.34,.15,1.85,.44,.52,.29,.91,.67,1.19,1.14,.28,.47,.41,.99,.41,1.53,0,.65-.17,1.21-.52,1.68-.34,.46-.8,.78-1.39,.96v.09c.73,.12,1.31,.43,1.72,.94,.41,.5,.62,1.12,.62,1.86,0,.63-.17,1.2-.52,1.7-.34,.5-.81,.89-1.4,1.18-.59,.29-1.26,.43-2.02,.43Z"/>
  <path class="cls-2" d="M724.76,482.85v-1.02l3.84-4.2c.45-.49,.82-.92,1.11-1.28,.29-.37,.51-.71,.65-1.03,.14-.33,.22-.67,.22-1.02,0-.41-.1-.76-.3-1.06-.19-.3-.46-.53-.8-.69-.34-.16-.72-.24-1.14-.24-.45,0-.84,.09-1.17,.28-.33,.18-.59,.44-.77,.77-.18,.33-.27,.72-.27,1.16h-1.34c0-.68,.16-1.28,.47-1.79,.31-.52,.74-.92,1.28-1.21,.55-.29,1.16-.43,1.84-.43s1.29,.14,1.81,.43c.53,.29,.94,.68,1.24,1.17,.3,.49,.45,1.03,.45,1.63,0,.43-.08,.85-.23,1.26-.15,.4-.42,.86-.79,1.36-.38,.5-.9,1.1-1.56,1.82l-2.61,2.79v.09h5.41v1.25h-7.34Zm13.55,.16c-.48,0-.95-.1-1.43-.27-.48-.17-.91-.47-1.31-.88-.39-.42-.71-.98-.95-1.69-.24-.71-.36-1.61-.36-2.68s.1-1.94,.29-2.74c.19-.8,.47-1.47,.84-2.02,.37-.55,.81-.97,1.33-1.25,.52-.28,1.11-.43,1.77-.43s1.23,.13,1.74,.39c.51,.26,.93,.62,1.25,1.08,.32,.46,.53,.99,.62,1.6h-1.39c-.13-.52-.38-.96-.75-1.3-.37-.34-.86-.52-1.48-.52-.9,0-1.61,.39-2.13,1.18-.52,.78-.77,1.88-.78,3.3h.09c.21-.32,.46-.6,.76-.82,.3-.23,.62-.41,.98-.53,.36-.12,.73-.19,1.13-.19,.67,0,1.28,.17,1.83,.5,.55,.33,1,.79,1.33,1.37,.33,.58,.5,1.24,.5,1.99s-.16,1.38-.48,1.98c-.32,.6-.77,1.07-1.36,1.42-.58,.35-1.26,.52-2.05,.51Zm0-1.25c.48,0,.91-.12,1.28-.36,.38-.24,.68-.56,.9-.96,.22-.4,.34-.85,.34-1.34s-.11-.92-.32-1.31c-.21-.4-.51-.71-.88-.95-.37-.24-.79-.35-1.27-.35-.36,0-.7,.07-1.01,.22-.31,.14-.58,.33-.82,.58-.23,.25-.41,.53-.55,.85-.13,.31-.2,.65-.2,.99,0,.46,.11,.89,.32,1.29,.22,.4,.52,.73,.9,.97,.38,.25,.82,.37,1.3,.37Zm6.57,1.18c-.28,0-.52-.1-.72-.3-.2-.2-.3-.44-.3-.72s.1-.52,.3-.72,.44-.3,.72-.3,.52,.1,.72,.3,.3,.44,.3,.72c0,.19-.05,.36-.14,.51-.09,.15-.21,.28-.37,.38-.15,.09-.32,.14-.51,.14Zm6.79,.07c-.86,0-1.59-.23-2.19-.7-.6-.47-1.06-1.15-1.38-2.04-.32-.89-.48-1.97-.48-3.24s.16-2.33,.48-3.22c.32-.89,.78-1.58,1.39-2.04,.61-.47,1.33-.71,2.18-.71s1.57,.24,2.18,.71c.61,.47,1.07,1.15,1.39,2.04,.32,.89,.48,1.96,.48,3.22s-.16,2.35-.48,3.24c-.32,.89-.78,1.57-1.38,2.04-.6,.47-1.33,.7-2.19,.7Zm0-1.25c.85,0,1.51-.41,1.98-1.23,.47-.82,.7-1.99,.7-3.5,0-1.01-.11-1.87-.32-2.57-.21-.71-.52-1.25-.92-1.62-.4-.37-.88-.56-1.44-.56-.84,0-1.5,.41-1.97,1.24-.47,.83-.71,1.99-.71,3.51,0,1.01,.11,1.86,.32,2.57,.21,.7,.52,1.24,.92,1.61,.4,.37,.88,.55,1.45,.55Zm5.93-1.29v-1.16l5.11-8.09h.84v1.79h-.57l-3.86,6.11v.09h6.89v1.25h-8.41Zm5.48,2.39v-11.64h1.34v11.64h-1.34Zm5.51,.09c-.28,0-.52-.1-.72-.3-.2-.2-.3-.44-.3-.72s.1-.52,.3-.72c.2-.2,.44-.3,.72-.3s.52,.1,.72,.3c.2,.2,.3,.44,.3,.72,0,.19-.05,.36-.14,.51-.09,.15-.21,.28-.37,.38-.15,.09-.32,.14-.51,.14Zm3.41-.09v-1.02l3.84-4.2c.45-.49,.82-.92,1.11-1.28,.29-.37,.51-.71,.65-1.03,.14-.33,.22-.67,.22-1.02,0-.41-.1-.76-.3-1.06-.19-.3-.46-.53-.8-.69-.34-.16-.72-.24-1.14-.24-.45,0-.84,.09-1.17,.28-.33,.18-.59,.44-.77,.77-.18,.33-.27,.72-.27,1.16h-1.34c0-.68,.16-1.28,.47-1.79,.31-.52,.74-.92,1.28-1.21,.55-.29,1.16-.43,1.84-.43s1.29,.14,1.81,.43c.53,.29,.94,.68,1.24,1.17,.3,.49,.45,1.03,.45,1.63,0,.43-.08,.85-.23,1.26-.15,.4-.42,.86-.79,1.36-.38,.5-.9,1.1-1.56,1.82l-2.61,2.79v.09h5.41v1.25h-7.34Zm13.62,.16c-.75,0-1.42-.13-2.01-.39-.58-.26-1.05-.62-1.39-1.07-.34-.46-.53-1-.56-1.61h1.43c.03,.38,.16,.7,.39,.97,.23,.27,.53,.48,.89,.63,.37,.15,.77,.22,1.22,.22,.5,0,.94-.09,1.33-.26,.39-.18,.69-.42,.91-.73,.22-.31,.33-.67,.33-1.08s-.11-.8-.32-1.13c-.21-.33-.52-.59-.93-.77-.41-.19-.91-.28-1.5-.28h-.93v-1.25h.93c.46,0,.87-.08,1.22-.25,.35-.17,.63-.4,.82-.7,.2-.3,.3-.66,.3-1.07s-.09-.74-.26-1.03c-.17-.29-.42-.52-.74-.68-.32-.16-.69-.24-1.11-.24-.4,0-.78,.07-1.14,.22-.35,.14-.64,.35-.86,.63-.22,.27-.34,.6-.36,.99h-1.36c.02-.61,.21-1.14,.55-1.6,.35-.46,.8-.82,1.35-1.08,.56-.26,1.18-.39,1.85-.39,.72,0,1.34,.15,1.85,.44,.52,.29,.91,.67,1.19,1.14,.28,.47,.41,.99,.41,1.53,0,.65-.17,1.21-.52,1.68-.34,.46-.8,.78-1.39,.96v.09c.73,.12,1.31,.43,1.72,.94,.41,.5,.62,1.12,.62,1.86,0,.63-.17,1.2-.52,1.7-.34,.5-.81,.89-1.4,1.18-.59,.29-1.26,.43-2.02,.43Z"/>
  <path class="cls-2" d="M899.41,483.01c-.86,0-1.59-.23-2.19-.7-.6-.47-1.06-1.15-1.38-2.04-.32-.89-.48-1.97-.48-3.24s.16-2.33,.48-3.22c.32-.89,.78-1.58,1.39-2.04,.61-.47,1.33-.71,2.18-.71s1.57,.24,2.18,.71c.61,.47,1.07,1.15,1.39,2.04,.32,.89,.48,1.96,.48,3.22s-.16,2.35-.48,3.24c-.32,.89-.78,1.57-1.38,2.04-.6,.47-1.33,.7-2.19,.7Zm0-1.25c.85,0,1.51-.41,1.98-1.23,.47-.82,.71-1.99,.71-3.5,0-1.01-.11-1.87-.32-2.57-.21-.71-.52-1.25-.92-1.62-.4-.37-.88-.56-1.44-.56-.84,0-1.5,.41-1.97,1.24-.47,.83-.71,1.99-.71,3.51,0,1.01,.11,1.86,.32,2.57,.21,.7,.52,1.24,.92,1.61,.4,.37,.88,.55,1.45,.55Zm10.14,1.25c-.75,0-1.42-.13-2.01-.39-.58-.26-1.05-.62-1.39-1.07-.34-.46-.53-1-.56-1.61h1.43c.03,.38,.16,.7,.39,.97,.23,.27,.52,.48,.89,.63,.37,.15,.77,.22,1.22,.22,.5,0,.94-.09,1.33-.26,.39-.18,.69-.42,.91-.73,.22-.31,.33-.67,.33-1.08s-.11-.8-.32-1.13c-.21-.33-.52-.59-.93-.77-.41-.19-.91-.28-1.5-.28h-.93v-1.25h.93c.46,0,.87-.08,1.22-.25,.35-.17,.63-.4,.82-.7,.2-.3,.3-.66,.3-1.07s-.09-.74-.26-1.03-.42-.52-.74-.68c-.32-.16-.69-.24-1.11-.24-.4,0-.78,.07-1.14,.22-.35,.14-.64,.35-.86,.63-.22,.27-.34,.6-.36,.99h-1.36c.02-.61,.21-1.14,.55-1.6,.34-.46,.79-.82,1.35-1.08,.56-.26,1.18-.39,1.85-.39,.72,0,1.34,.15,1.85,.44,.52,.29,.91,.67,1.19,1.14,.28,.47,.41,.99,.41,1.53,0,.65-.17,1.21-.52,1.68-.34,.46-.8,.78-1.39,.96v.09c.73,.12,1.31,.43,1.72,.94,.41,.5,.62,1.12,.62,1.86,0,.63-.17,1.2-.52,1.7-.34,.5-.81,.89-1.4,1.18-.59,.29-1.26,.43-2.02,.43Zm6.9-.07c-.28,0-.52-.1-.72-.3-.2-.2-.3-.44-.3-.72s.1-.52,.3-.72c.2-.2,.44-.3,.72-.3s.52,.1,.72,.3c.2,.2,.3,.44,.3,.72,0,.19-.05,.36-.14,.51-.09,.15-.21,.28-.37,.38-.15,.09-.32,.14-.51,.14Zm6.79,.07c-.86,0-1.59-.23-2.19-.7-.6-.47-1.06-1.15-1.38-2.04-.32-.89-.48-1.97-.48-3.24s.16-2.33,.48-3.22c.32-.89,.78-1.58,1.39-2.04,.61-.47,1.33-.71,2.18-.71s1.57,.24,2.18,.71c.61,.47,1.07,1.15,1.39,2.04,.32,.89,.48,1.96,.48,3.22s-.16,2.35-.48,3.24c-.32,.89-.78,1.57-1.38,2.04-.6,.47-1.33,.7-2.19,.7Zm0-1.25c.85,0,1.51-.41,1.98-1.23,.47-.82,.71-1.99,.71-3.5,0-1.01-.11-1.87-.32-2.57-.21-.71-.52-1.25-.92-1.62-.4-.37-.88-.56-1.44-.56-.84,0-1.5,.41-1.97,1.24-.47,.83-.71,1.99-.71,3.51,0,1.01,.11,1.86,.32,2.57,.21,.7,.52,1.24,.92,1.61,.4,.37,.88,.55,1.45,.55Zm9.84,1.25c-.67,0-1.27-.13-1.8-.4-.53-.26-.96-.63-1.28-1.09-.32-.46-.5-.99-.53-1.58h1.36c.05,.53,.29,.96,.72,1.31,.43,.34,.94,.51,1.53,.51,.48,0,.9-.11,1.27-.33,.38-.22,.67-.53,.88-.92,.22-.39,.32-.84,.32-1.34s-.11-.96-.34-1.36c-.22-.4-.52-.72-.91-.95-.39-.23-.83-.35-1.32-.35-.36,0-.72,.05-1.1,.17-.38,.11-.68,.25-.93,.43l-1.32-.16,.71-5.73h6.04v1.25h-4.86l-.41,3.43h.07c.24-.19,.54-.35,.9-.47s.73-.19,1.12-.19c.71,0,1.35,.17,1.9,.51,.56,.34,1,.8,1.32,1.39,.32,.59,.48,1.26,.48,2.01s-.17,1.41-.5,1.99c-.33,.58-.78,1.04-1.36,1.38-.58,.33-1.24,.5-1.98,.5Zm6.66-.07c-.28,0-.52-.1-.72-.3-.2-.2-.3-.44-.3-.72s.1-.52,.3-.72c.2-.2,.44-.3,.72-.3s.52,.1,.72,.3c.2,.2,.3,.44,.3,.72,0,.19-.05,.36-.14,.51-.09,.15-.21,.28-.37,.38-.15,.09-.32,.14-.51,.14Zm3.41-.09v-1.02l3.84-4.2c.45-.49,.82-.92,1.11-1.28,.29-.37,.51-.71,.65-1.03,.14-.33,.22-.67,.22-1.02,0-.41-.1-.76-.3-1.06-.19-.3-.46-.53-.79-.69-.34-.16-.72-.24-1.14-.24-.45,0-.84,.09-1.17,.28-.33,.18-.59,.44-.77,.77-.18,.33-.27,.72-.27,1.16h-1.34c0-.68,.16-1.28,.47-1.79,.31-.52,.74-.92,1.28-1.21,.55-.29,1.16-.43,1.84-.43s1.29,.14,1.81,.43c.53,.29,.94,.68,1.24,1.17,.3,.49,.45,1.03,.45,1.63,0,.43-.08,.85-.23,1.26-.15,.4-.42,.86-.79,1.36-.38,.5-.9,1.1-1.56,1.82l-2.61,2.79v.09h5.41v1.25h-7.34Zm13.62,.16c-.75,0-1.42-.13-2.01-.39-.58-.26-1.05-.62-1.39-1.07-.34-.46-.53-1-.56-1.61h1.43c.03,.38,.16,.7,.39,.97,.23,.27,.52,.48,.89,.63,.37,.15,.77,.22,1.22,.22,.5,0,.94-.09,1.33-.26,.39-.18,.69-.42,.91-.73,.22-.31,.33-.67,.33-1.08s-.11-.8-.32-1.13c-.21-.33-.52-.59-.93-.77-.41-.19-.91-.28-1.5-.28h-.93v-1.25h.93c.46,0,.87-.08,1.22-.25,.35-.17,.63-.4,.82-.7,.2-.3,.3-.66,.3-1.07s-.09-.74-.26-1.03c-.17-.29-.42-.52-.74-.68-.31-.16-.68-.24-1.11-.24-.4,0-.78,.07-1.14,.22-.35,.14-.64,.35-.86,.63-.22,.27-.34,.6-.36,.99h-1.36c.02-.61,.21-1.14,.55-1.6,.34-.46,.79-.82,1.35-1.08,.56-.26,1.18-.39,1.85-.39,.72,0,1.34,.15,1.85,.44,.52,.29,.91,.67,1.19,1.14,.28,.47,.41,.99,.41,1.53,0,.65-.17,1.21-.52,1.68-.34,.46-.8,.78-1.39,.96v.09c.74,.12,1.31,.43,1.72,.94,.41,.5,.62,1.12,.62,1.86,0,.63-.17,1.2-.52,1.7-.34,.5-.81,.89-1.4,1.18-.59,.29-1.26,.43-2.02,.43Z"/>
  <path class="cls-2" d="M1070.6,471.21v11.64h-1.41v-10.16h-.07l-2.84,1.89v-1.43l2.91-1.93h1.41Zm7.14,11.79c-.85,0-1.58-.23-2.18-.7-.61-.47-1.07-1.15-1.39-2.04-.31-.89-.47-1.97-.47-3.24s.16-2.33,.47-3.22c.33-.89,.79-1.58,1.39-2.04,.61-.47,1.33-.71,2.18-.71s1.58,.24,2.18,.71c.61,.47,1.07,1.15,1.39,2.04,.32,.89,.48,1.96,.48,3.22s-.16,2.35-.48,3.24c-.32,.89-.78,1.57-1.38,2.04-.6,.47-1.33,.7-2.19,.7Zm0-1.25c.85,0,1.51-.41,1.98-1.23s.7-1.99,.7-3.5c0-1.01-.1-1.87-.32-2.57-.21-.71-.52-1.25-.92-1.62-.4-.37-.88-.56-1.44-.56-.84,0-1.5,.41-1.97,1.24-.47,.83-.71,1.99-.71,3.51,0,1.01,.11,1.86,.32,2.57s.52,1.24,.91,1.61c.41,.37,.89,.55,1.45,.55Zm6.8,1.18c-.28,0-.52-.1-.72-.3-.2-.2-.3-.44-.3-.72s.1-.52,.3-.72c.2-.2,.44-.3,.72-.3s.52,.1,.72,.3c.2,.2,.3,.44,.3,.72,0,.19-.04,.36-.14,.51-.09,.15-.21,.28-.37,.38-.15,.09-.32,.14-.51,.14Zm6.8,.07c-.86,0-1.59-.23-2.19-.7-.6-.47-1.06-1.15-1.38-2.04-.32-.89-.48-1.97-.48-3.24s.16-2.33,.48-3.22c.32-.89,.78-1.58,1.38-2.04,.61-.47,1.34-.71,2.19-.71s1.57,.24,2.17,.71c.61,.47,1.07,1.15,1.39,2.04,.32,.89,.48,1.96,.48,3.22s-.16,2.35-.48,3.24c-.31,.89-.77,1.57-1.38,2.04-.6,.47-1.33,.7-2.18,.7Zm0-1.25c.85,0,1.5-.41,1.97-1.23,.47-.82,.71-1.99,.71-3.5,0-1.01-.11-1.87-.33-2.57-.21-.71-.51-1.25-.92-1.62-.39-.37-.87-.56-1.43-.56-.84,0-1.5,.41-1.98,1.24-.47,.83-.71,1.99-.71,3.51,0,1.01,.11,1.86,.32,2.57,.22,.7,.52,1.24,.92,1.61s.88,.55,1.45,.55Zm9.84,1.25c-.67,0-1.27-.13-1.8-.4-.54-.26-.97-.63-1.29-1.09-.32-.46-.5-.99-.53-1.58h1.37c.05,.53,.29,.96,.71,1.31,.43,.34,.94,.51,1.54,.51,.47,0,.9-.11,1.27-.33,.38-.22,.67-.53,.88-.92,.22-.39,.32-.84,.32-1.34s-.11-.96-.33-1.36c-.22-.4-.52-.72-.91-.95-.39-.23-.83-.35-1.32-.35-.36,0-.73,.05-1.1,.17-.38,.11-.68,.25-.93,.43l-1.31-.16,.7-5.73h6.05v1.25h-4.87l-.41,3.43h.07c.24-.19,.54-.35,.9-.47s.73-.19,1.12-.19c.72,0,1.35,.17,1.91,.51,.56,.34,1,.8,1.32,1.39,.32,.59,.48,1.26,.48,2.01s-.17,1.41-.5,1.99c-.33,.58-.79,1.04-1.37,1.38-.57,.33-1.23,.5-1.97,.5Zm6.66-.07c-.28,0-.52-.1-.72-.3-.2-.2-.3-.44-.3-.72s.1-.52,.3-.72c.2-.2,.44-.3,.72-.3s.52,.1,.72,.3c.2,.2,.3,.44,.3,.72,0,.19-.05,.36-.14,.51-.09,.15-.22,.28-.37,.38-.15,.09-.32,.14-.51,.14Zm3.4-.09v-1.02l3.85-4.2c.45-.49,.82-.92,1.11-1.28,.29-.37,.51-.71,.65-1.03,.14-.33,.21-.67,.21-1.02,0-.41-.1-.76-.29-1.06-.2-.3-.46-.53-.8-.69s-.71-.24-1.13-.24c-.45,0-.84,.09-1.18,.28-.32,.18-.58,.44-.76,.77-.18,.33-.27,.72-.27,1.16h-1.34c0-.68,.16-1.28,.47-1.79,.32-.52,.74-.92,1.29-1.21,.54-.29,1.15-.43,1.83-.43s1.29,.14,1.81,.43c.53,.29,.94,.68,1.24,1.17,.3,.49,.45,1.03,.45,1.63,0,.43-.08,.85-.23,1.26-.15,.4-.42,.86-.8,1.36-.37,.5-.89,1.1-1.56,1.82l-2.61,2.79v.09h5.41v1.25h-7.35Zm13.62,.16c-.75,0-1.42-.13-2-.39-.59-.26-1.05-.62-1.39-1.07-.35-.46-.53-1-.56-1.61h1.43c.03,.38,.16,.7,.39,.97,.22,.27,.52,.48,.89,.63,.37,.15,.77,.22,1.22,.22,.5,0,.94-.09,1.33-.26,.39-.18,.69-.42,.91-.73,.22-.31,.33-.67,.33-1.08s-.11-.8-.32-1.13c-.21-.33-.52-.59-.93-.77-.41-.19-.91-.28-1.5-.28h-.93v-1.25h.93c.46,0,.87-.08,1.21-.25,.36-.17,.63-.4,.83-.7,.2-.3,.3-.66,.3-1.07s-.09-.74-.26-1.03c-.18-.29-.42-.52-.74-.68-.31-.16-.69-.24-1.11-.24s-.78,.07-1.14,.22c-.35,.14-.64,.35-.86,.63-.23,.27-.35,.6-.37,.99h-1.36c.02-.61,.21-1.14,.55-1.6,.34-.46,.8-.82,1.35-1.08,.56-.26,1.18-.39,1.85-.39,.72,0,1.34,.15,1.85,.44,.52,.29,.91,.67,1.19,1.14,.28,.47,.41,.99,.41,1.53,0,.65-.17,1.21-.51,1.68-.34,.46-.81,.78-1.4,.96v.09c.74,.12,1.31,.43,1.73,.94,.41,.5,.62,1.12,.62,1.86,0,.63-.18,1.2-.52,1.7-.34,.5-.81,.89-1.4,1.18-.59,.29-1.26,.43-2.02,.43Z"/>
  <path class="cls-3" d="M69.61,11.85H1437.61c.28,0,.5,.22,.5,.5h0c0,.28-.22,.5-.5,.5H69.61c-.28,0-.5-.22-.5-.5h0c0-.28,.22-.5,.5-.5Z"/>
  <path class="cls-3" d="M69.61,55.85H1437.61c.28,0,.5,.22,.5,.5h0c0,.28-.22,.5-.5,.5H69.61c-.28,0-.5-.22-.5-.5h0c0-.28,.22-.5,.5-.5Z"/>
  <path class="cls-3" d="M69.61,99.85H1437.61c.28,0,.5,.22,.5,.5h0c0,.28-.22,.5-.5,.5H69.61c-.28,0-.5-.22-.5-.5h0c0-.28,.22-.5,.5-.5Z"/>
  <path class="cls-3" d="M69.61,143.85H1437.61c.28,0,.5,.22,.5,.5h0c0,.28-.22,.5-.5,.5H69.61c-.28,0-.5-.22-.5-.5h0c0-.28,.22-.5,.5-.5Z"/>
  <path class="cls-3" d="M69.61,187.85H1437.61c.28,0,.5,.22,.5,.5h0c0,.28-.22,.5-.5,.5H69.61c-.28,0-.5-.22-.5-.5h0c0-.28,.22-.5,.5-.5Z"/>
  <path class="cls-3" d="M69.61,231.85H1437.61c.28,0,.5,.22,.5,.5h0c0,.28-.22,.5-.5,.5H69.61c-.28,0-.5-.22-.5-.5h0c0-.28,.22-.5,.5-.5Z"/>
  <path class="cls-3" d="M69.61,275.85H1437.61c.28,0,.5,.22,.5,.5h0c0,.28-.22,.5-.5,.5H69.61c-.28,0-.5-.22-.5-.5h0c0-.28,.22-.5,.5-.5Z"/>
  <path class="cls-3" d="M69.61,319.85H1437.61c.28,0,.5,.22,.5,.5h0c0,.28-.22,.5-.5,.5H69.61c-.28,0-.5-.22-.5-.5h0c0-.28,.22-.5,.5-.5Z"/>
  <path class="cls-3" d="M69.61,363.85H1437.61c.28,0,.5,.22,.5,.5h0c0,.28-.22,.5-.5,.5H69.61c-.28,0-.5-.22-.5-.5h0c0-.28,.22-.5,.5-.5Z"/>
  <path class="cls-3" d="M69.61,407.85H1437.61c.28,0,.5,.22,.5,.5h0c0,.28-.22,.5-.5,.5H69.61c-.28,0-.5-.22-.5-.5h0c0-.28,.22-.5,.5-.5Z"/>
  <path class="cls-1" d="M69.61,451.85H1437.61c.28,0,.5,.22,.5,.5h0c0,.28-.22,.5-.5,.5H69.61c-.28,0-.5-.22-.5-.5h0c0-.28,.22-.5,.5-.5Z"/>
  <path class="cls-2" d="M40.5,397.21v11.64h-1.41v-10.16h-.07l-2.84,1.89v-1.43l2.91-1.93h1.41Zm4.68,10.04l-.09,.61c-.06,.43-.16,.89-.3,1.39-.13,.49-.26,.96-.4,1.39-.14,.44-.26,.78-.35,1.04h-1.02c.05-.24,.11-.56,.19-.96,.08-.4,.16-.84,.24-1.34,.08-.49,.15-.99,.2-1.5l.07-.64h1.45Zm5.85,1.75c-.86,0-1.59-.23-2.19-.7-.6-.47-1.06-1.15-1.38-2.04-.32-.89-.48-1.97-.48-3.24s.16-2.33,.48-3.22c.32-.89,.78-1.58,1.39-2.04,.61-.47,1.33-.71,2.18-.71s1.57,.24,2.18,.71c.61,.47,1.07,1.15,1.39,2.04,.32,.89,.48,1.96,.48,3.22s-.16,2.35-.48,3.24c-.32,.89-.78,1.57-1.38,2.04-.6,.47-1.33,.7-2.19,.7Zm0-1.25c.85,0,1.51-.41,1.98-1.23s.7-1.99,.7-3.5c0-1.01-.11-1.87-.32-2.57-.21-.71-.52-1.25-.92-1.62-.4-.37-.88-.56-1.44-.56-.84,0-1.5,.41-1.97,1.24-.47,.83-.71,1.99-.71,3.51,0,1.01,.11,1.86,.32,2.57s.52,1.24,.91,1.61c.4,.37,.88,.55,1.45,.55Z"/>
  <path class="cls-2" d="M51.11,453.01c-.86,0-1.59-.23-2.19-.7-.6-.47-1.06-1.15-1.38-2.04-.32-.89-.48-1.97-.48-3.24s.16-2.33,.48-3.22c.32-.89,.78-1.58,1.39-2.04,.61-.47,1.33-.71,2.18-.71s1.57,.24,2.18,.71c.61,.47,1.07,1.15,1.39,2.04,.32,.89,.48,1.96,.48,3.22s-.16,2.35-.48,3.24c-.32,.89-.78,1.57-1.38,2.04-.6,.47-1.33,.7-2.19,.7Zm0-1.25c.85,0,1.51-.41,1.98-1.23s.7-1.99,.7-3.5c0-1.01-.11-1.87-.32-2.57-.21-.71-.52-1.25-.92-1.62-.4-.37-.88-.56-1.44-.56-.84,0-1.5,.41-1.97,1.24-.47,.83-.71,1.99-.71,3.51,0,1.01,.11,1.86,.32,2.57,.21,.7,.52,1.24,.91,1.61,.4,.37,.88,.55,1.45,.55Z"/>
  <path class="cls-2" d="M37.19,45.05c.48,0,.95,.09,1.43,.27,.48,.18,.91,.47,1.31,.89,.39,.41,.71,.97,.95,1.68,.24,.71,.36,1.6,.36,2.66s-.1,1.95-.3,2.76c-.19,.8-.47,1.47-.84,2.02-.36,.55-.81,.97-1.33,1.25-.52,.28-1.11,.43-1.76,.43s-1.23-.13-1.74-.39c-.51-.26-.92-.62-1.25-1.09-.32-.47-.53-1.01-.62-1.62h1.39c.12,.53,.37,.98,.74,1.32,.38,.34,.87,.52,1.48,.52,.9,0,1.61-.39,2.12-1.18,.52-.78,.78-1.89,.78-3.32h-.09c-.21,.32-.46,.59-.76,.82-.29,.23-.62,.41-.97,.53-.36,.12-.73,.19-1.14,.19-.67,0-1.28-.16-1.84-.49-.55-.33-1-.79-1.33-1.37-.33-.58-.49-1.25-.49-2s.16-1.36,.48-1.95c.32-.59,.77-1.07,1.35-1.42,.58-.35,1.27-.52,2.06-.51Zm0,1.25c-.48,0-.91,.12-1.29,.36-.38,.23-.68,.55-.9,.95-.22,.4-.33,.84-.33,1.32s.11,.93,.32,1.32c.22,.39,.51,.71,.88,.94,.38,.23,.8,.35,1.28,.35,.36,0,.7-.07,1.01-.21,.31-.14,.58-.34,.81-.59,.23-.25,.42-.53,.55-.85,.13-.32,.2-.65,.2-.99,0-.45-.11-.88-.33-1.28-.22-.4-.52-.72-.9-.97-.38-.25-.81-.37-1.3-.37Zm7.9,8.95l-.09,.61c-.06,.43-.16,.89-.3,1.39-.13,.49-.26,.96-.4,1.39-.14,.44-.26,.78-.35,1.04h-1.02c.05-.24,.11-.56,.19-.96,.08-.4,.16-.84,.24-1.34,.08-.49,.15-.99,.2-1.5l.07-.64h1.45Zm5.85,1.75c-.86,0-1.59-.23-2.19-.7-.6-.47-1.06-1.15-1.38-2.04-.32-.89-.48-1.97-.48-3.24s.16-2.33,.48-3.22c.32-.89,.78-1.58,1.39-2.05,.61-.47,1.33-.71,2.18-.71s1.57,.24,2.18,.71c.61,.47,1.07,1.15,1.39,2.05,.32,.89,.48,1.96,.48,3.22s-.16,2.34-.48,3.24c-.32,.89-.78,1.57-1.38,2.04-.6,.47-1.33,.7-2.19,.7Zm0-1.25c.85,0,1.51-.41,1.98-1.23s.7-1.98,.7-3.5c0-1.01-.11-1.87-.32-2.57-.21-.71-.52-1.25-.92-1.62-.4-.37-.88-.56-1.44-.56-.84,0-1.5,.41-1.97,1.24-.47,.83-.71,1.99-.71,3.51,0,1.01,.11,1.86,.32,2.57s.52,1.24,.91,1.61c.4,.37,.88,.55,1.45,.55Z"/>
  <path class="cls-2" d="M33.44,364.85v-1.02l3.84-4.2c.45-.49,.82-.92,1.11-1.28,.29-.37,.51-.71,.65-1.03,.14-.33,.22-.67,.22-1.02,0-.41-.1-.76-.3-1.06-.19-.3-.46-.53-.8-.69s-.72-.24-1.14-.24c-.45,0-.84,.09-1.17,.28-.33,.18-.59,.44-.77,.77-.18,.33-.27,.72-.27,1.16h-1.34c0-.68,.16-1.28,.47-1.79,.31-.52,.74-.92,1.28-1.21,.55-.29,1.16-.43,1.84-.43s1.29,.14,1.81,.43c.53,.29,.94,.68,1.24,1.17,.3,.49,.45,1.03,.45,1.63,0,.43-.08,.85-.23,1.26-.15,.4-.42,.86-.8,1.36-.38,.5-.9,1.1-1.56,1.82l-2.61,2.79v.09h5.41v1.25h-7.34Zm11.71-1.59l-.09,.61c-.06,.43-.16,.89-.3,1.39-.13,.49-.26,.96-.4,1.39-.14,.44-.26,.78-.35,1.04h-1.02c.05-.24,.11-.56,.19-.96,.08-.4,.16-.84,.24-1.34,.08-.49,.15-.99,.2-1.5l.07-.64h1.45Zm5.85,1.75c-.86,0-1.59-.23-2.19-.7-.6-.47-1.06-1.15-1.38-2.04-.32-.89-.48-1.97-.48-3.24s.16-2.33,.48-3.22c.32-.89,.78-1.58,1.39-2.04,.61-.47,1.33-.71,2.18-.71s1.57,.24,2.18,.71c.61,.47,1.07,1.15,1.39,2.04,.32,.89,.48,1.96,.48,3.22s-.16,2.35-.48,3.24c-.32,.89-.78,1.57-1.38,2.04-.6,.47-1.33,.7-2.19,.7Zm0-1.25c.85,0,1.51-.41,1.98-1.23s.7-1.99,.7-3.5c0-1.01-.11-1.87-.32-2.57-.21-.71-.52-1.25-.92-1.62-.4-.37-.88-.56-1.44-.56-.84,0-1.5,.41-1.97,1.24-.47,.83-.71,1.99-.71,3.51,0,1.01,.11,1.86,.32,2.57s.52,1.24,.91,1.61c.4,.37,.88,.55,1.45,.55Z"/>
  <path class="cls-2" d="M37.3,321.01c-.75,0-1.42-.13-2.01-.39-.58-.26-1.05-.62-1.39-1.07-.34-.46-.53-1-.56-1.61h1.43c.03,.38,.16,.7,.39,.97,.23,.27,.52,.48,.89,.63,.37,.15,.77,.22,1.22,.22,.5,0,.94-.09,1.33-.26,.39-.18,.69-.42,.91-.73,.22-.31,.33-.67,.33-1.08s-.11-.8-.32-1.13c-.21-.33-.52-.59-.93-.77-.41-.19-.91-.28-1.5-.28h-.93v-1.25h.93c.46,0,.87-.08,1.22-.25,.35-.17,.63-.4,.82-.7,.2-.3,.3-.66,.3-1.07s-.09-.74-.26-1.03c-.17-.29-.42-.52-.74-.68-.31-.16-.69-.24-1.11-.24-.4,0-.78,.07-1.14,.22-.35,.14-.64,.35-.86,.63-.22,.27-.34,.6-.36,.99h-1.36c.02-.61,.21-1.14,.55-1.6,.34-.46,.8-.82,1.35-1.08,.56-.26,1.18-.39,1.85-.39,.72,0,1.34,.15,1.85,.44,.52,.29,.91,.67,1.19,1.14,.28,.47,.41,.99,.41,1.53,0,.65-.17,1.21-.52,1.68-.34,.46-.8,.78-1.39,.96v.09c.73,.12,1.31,.43,1.72,.94,.41,.5,.62,1.12,.62,1.86,0,.63-.17,1.2-.52,1.7-.34,.5-.81,.89-1.4,1.18-.59,.29-1.26,.43-2.02,.43Zm7.92-1.75l-.09,.61c-.06,.43-.16,.89-.3,1.39-.13,.49-.26,.96-.4,1.39-.14,.44-.26,.78-.35,1.04h-1.02c.05-.24,.11-.56,.19-.96,.08-.4,.16-.84,.24-1.34,.08-.49,.15-.99,.2-1.5l.07-.64h1.45Zm5.85,1.75c-.86,0-1.59-.23-2.19-.7-.6-.47-1.06-1.15-1.38-2.04-.32-.89-.48-1.97-.48-3.24s.16-2.33,.48-3.22c.32-.89,.78-1.58,1.39-2.04,.61-.47,1.33-.71,2.18-.71s1.57,.24,2.18,.71c.61,.47,1.07,1.15,1.39,2.04,.32,.89,.48,1.96,.48,3.22s-.16,2.35-.48,3.24c-.32,.89-.78,1.57-1.38,2.04-.6,.47-1.33,.7-2.19,.7Zm0-1.25c.85,0,1.51-.41,1.98-1.23s.7-1.99,.7-3.5c0-1.01-.11-1.87-.32-2.57-.21-.71-.52-1.25-.92-1.62-.4-.37-.88-.56-1.44-.56-.84,0-1.5,.41-1.97,1.24-.47,.83-.71,1.99-.71,3.51,0,1.01,.11,1.86,.32,2.57s.52,1.24,.91,1.61c.4,.37,.88,.55,1.45,.55Z"/>
  <path class="cls-2" d="M33.15,274.46v-1.16l5.11-8.09h.84v1.79h-.57l-3.86,6.11v.09h6.89v1.25h-8.41Zm5.48,2.39v-11.64h1.34v11.64h-1.34Zm6.54-1.59l-.09,.61c-.06,.43-.16,.89-.3,1.39-.13,.49-.26,.96-.4,1.39-.14,.44-.26,.78-.35,1.04h-1.02c.05-.24,.11-.56,.19-.96,.08-.4,.16-.84,.24-1.34,.08-.49,.15-.99,.2-1.5l.07-.64h1.45Zm5.85,1.75c-.86,0-1.59-.23-2.19-.7-.6-.47-1.06-1.15-1.38-2.04-.32-.89-.48-1.97-.48-3.24s.16-2.33,.48-3.22c.32-.89,.78-1.58,1.39-2.04,.61-.47,1.33-.71,2.18-.71s1.57,.24,2.18,.71c.61,.47,1.07,1.15,1.39,2.04,.32,.89,.48,1.96,.48,3.22s-.16,2.35-.48,3.24c-.32,.89-.78,1.57-1.38,2.04-.6,.47-1.33,.7-2.19,.7Zm0-1.25c.85,0,1.51-.41,1.98-1.23,.47-.82,.7-1.99,.7-3.5,0-1.01-.11-1.87-.32-2.57-.21-.71-.52-1.25-.92-1.62-.4-.37-.88-.56-1.44-.56-.84,0-1.5,.41-1.97,1.24-.47,.83-.71,1.99-.71,3.51,0,1.01,.11,1.86,.32,2.57,.21,.7,.52,1.24,.91,1.61,.4,.37,.88,.55,1.45,.55Z"/>
  <path class="cls-2" d="M37.27,233.01c-.67,0-1.27-.13-1.8-.4-.53-.26-.96-.63-1.28-1.09-.32-.46-.5-.99-.53-1.58h1.36c.05,.53,.29,.96,.72,1.31,.43,.34,.94,.51,1.53,.51,.48,0,.9-.11,1.27-.33,.38-.22,.67-.53,.88-.92,.22-.39,.32-.84,.32-1.34s-.11-.96-.34-1.36c-.22-.4-.52-.72-.91-.95-.39-.23-.83-.35-1.32-.35-.36,0-.72,.05-1.1,.17-.38,.11-.68,.25-.93,.43l-1.32-.16,.7-5.73h6.05v1.25h-4.86l-.41,3.43h.07c.24-.19,.54-.35,.9-.47,.36-.12,.73-.19,1.12-.19,.71,0,1.35,.17,1.9,.51,.56,.34,1,.8,1.32,1.39,.32,.59,.48,1.26,.48,2.01s-.17,1.41-.5,1.99c-.33,.58-.78,1.04-1.36,1.38-.58,.33-1.24,.5-1.98,.5Zm7.68-1.75l-.09,.61c-.06,.43-.16,.89-.3,1.39-.13,.49-.26,.96-.4,1.39-.14,.44-.26,.78-.35,1.04h-1.02c.05-.24,.11-.56,.19-.96,.08-.4,.16-.84,.24-1.34,.08-.49,.15-.99,.2-1.5l.07-.64h1.45Zm5.85,1.75c-.86,0-1.59-.23-2.19-.7-.6-.47-1.06-1.15-1.38-2.04-.32-.89-.48-1.97-.48-3.24s.16-2.33,.48-3.22c.32-.89,.78-1.58,1.39-2.05,.61-.47,1.33-.71,2.18-.71s1.57,.24,2.18,.71c.61,.47,1.07,1.15,1.39,2.05,.32,.89,.48,1.96,.48,3.22s-.16,2.34-.48,3.24c-.32,.89-.78,1.57-1.38,2.04-.6,.47-1.33,.7-2.19,.7Zm0-1.25c.85,0,1.51-.41,1.98-1.23,.47-.82,.7-1.99,.7-3.5,0-1.01-.11-1.87-.32-2.57-.21-.71-.52-1.25-.92-1.62-.4-.37-.88-.56-1.44-.56-.84,0-1.5,.41-1.97,1.24-.47,.83-.71,1.99-.71,3.51,0,1.01,.11,1.86,.32,2.57,.21,.71,.52,1.24,.91,1.61,.4,.37,.88,.55,1.45,.55Z"/>
  <path class="cls-2" d="M37.42,189.01c-.48,0-.95-.1-1.43-.27-.48-.17-.91-.47-1.31-.88-.39-.42-.71-.98-.95-1.69-.24-.71-.36-1.61-.36-2.68s.1-1.94,.29-2.74c.19-.8,.47-1.47,.84-2.02,.37-.55,.81-.97,1.33-1.25,.52-.28,1.11-.43,1.77-.43s1.23,.13,1.74,.39c.51,.26,.93,.62,1.25,1.08,.32,.46,.53,.99,.62,1.6h-1.39c-.13-.52-.38-.96-.75-1.3-.37-.35-.86-.52-1.48-.52-.9,0-1.61,.39-2.13,1.18-.52,.78-.77,1.88-.78,3.3h.09c.21-.32,.46-.6,.76-.82,.3-.23,.62-.41,.98-.53,.36-.12,.73-.19,1.13-.19,.67,0,1.28,.17,1.83,.5,.55,.33,1,.79,1.33,1.37,.33,.58,.5,1.24,.5,1.99s-.16,1.38-.48,1.98c-.32,.6-.77,1.07-1.36,1.42-.58,.35-1.26,.52-2.05,.51Zm0-1.25c.48,0,.91-.12,1.28-.36,.38-.24,.68-.56,.9-.96,.22-.4,.34-.85,.34-1.34s-.11-.92-.32-1.31c-.21-.4-.51-.71-.88-.95-.37-.24-.8-.35-1.27-.35-.36,0-.7,.07-1.01,.22-.31,.14-.58,.33-.82,.58-.23,.25-.41,.53-.55,.85-.13,.32-.2,.65-.2,.99,0,.46,.11,.89,.32,1.29,.22,.4,.52,.73,.9,.97,.38,.25,.82,.37,1.3,.37Zm7.6-.5l-.09,.61c-.06,.43-.16,.89-.3,1.39-.13,.49-.26,.96-.4,1.39-.14,.44-.26,.78-.35,1.04h-1.02c.05-.24,.11-.56,.19-.96,.08-.4,.16-.84,.24-1.34,.08-.49,.15-.99,.2-1.5l.07-.64h1.45Zm5.85,1.75c-.86,0-1.59-.23-2.19-.7-.6-.47-1.06-1.15-1.38-2.04-.32-.89-.48-1.97-.48-3.24s.16-2.33,.48-3.22c.32-.89,.78-1.58,1.39-2.05,.61-.47,1.33-.71,2.18-.71s1.57,.24,2.18,.71c.61,.47,1.07,1.15,1.39,2.05,.32,.89,.48,1.96,.48,3.22s-.16,2.34-.48,3.24c-.32,.89-.78,1.57-1.38,2.04-.6,.47-1.33,.7-2.19,.7Zm0-1.25c.85,0,1.51-.41,1.98-1.23,.47-.82,.7-1.99,.7-3.5,0-1.01-.11-1.87-.32-2.57-.21-.71-.52-1.25-.92-1.62-.4-.37-.88-.56-1.44-.56-.84,0-1.5,.41-1.97,1.24-.47,.83-.71,1.99-.71,3.51,0,1.01,.11,1.86,.32,2.57s.52,1.24,.91,1.61c.4,.37,.88,.55,1.45,.55Z"/>
  <path class="cls-2" d="M36.07,144.85l5.2-10.29v-.09h-6v-1.25h7.45v1.32l-5.18,10.32h-1.48Zm8.8-1.59l-.09,.61c-.06,.43-.16,.89-.3,1.39-.13,.49-.26,.96-.4,1.39-.14,.44-.26,.78-.35,1.04h-1.02c.05-.24,.11-.56,.19-.96,.08-.4,.16-.84,.24-1.34,.08-.49,.15-.99,.2-1.5l.07-.64h1.45Zm5.85,1.75c-.86,0-1.59-.23-2.19-.7-.6-.47-1.06-1.15-1.38-2.04-.32-.89-.48-1.97-.48-3.24s.16-2.33,.48-3.22c.32-.89,.78-1.58,1.39-2.05,.61-.47,1.33-.71,2.18-.71s1.57,.24,2.18,.71c.61,.47,1.07,1.15,1.39,2.05,.32,.89,.48,1.96,.48,3.22s-.16,2.34-.48,3.24c-.32,.89-.78,1.57-1.38,2.04-.6,.47-1.33,.7-2.19,.7Zm0-1.25c.85,0,1.51-.41,1.98-1.23,.47-.82,.7-1.99,.7-3.5,0-1.01-.11-1.87-.32-2.57-.21-.71-.52-1.25-.92-1.62-.4-.37-.88-.56-1.44-.56-.84,0-1.5,.41-1.97,1.24-.47,.83-.71,1.99-.71,3.51,0,1.01,.11,1.86,.32,2.57,.21,.71,.52,1.24,.91,1.61,.4,.37,.88,.55,1.45,.55Z"/>
  <path class="cls-2" d="M37.26,101.01c-.78,0-1.47-.14-2.07-.41-.59-.28-1.06-.66-1.39-1.15-.33-.49-.5-1.05-.49-1.68,0-.49,.09-.95,.29-1.36,.2-.42,.47-.77,.81-1.05,.34-.28,.73-.46,1.15-.54v-.07c-.56-.14-1-.46-1.33-.94-.33-.48-.49-1.04-.49-1.65,0-.59,.15-1.12,.45-1.59,.3-.47,.72-.83,1.25-1.1,.53-.27,1.14-.4,1.82-.4s1.28,.13,1.81,.4c.53,.27,.95,.64,1.25,1.1,.31,.47,.46,.99,.47,1.59,0,.62-.17,1.17-.51,1.65-.33,.48-.77,.79-1.31,.94v.07c.42,.08,.8,.26,1.14,.54,.34,.28,.61,.63,.81,1.05,.2,.42,.3,.87,.31,1.36,0,.63-.17,1.19-.51,1.68-.33,.49-.8,.87-1.39,1.15-.59,.28-1.27,.41-2.05,.41Zm0-1.25c.53,0,.98-.08,1.36-.26,.38-.17,.68-.41,.89-.72,.21-.31,.31-.67,.32-1.09,0-.44-.12-.83-.34-1.16-.22-.34-.53-.6-.91-.8-.38-.19-.82-.29-1.31-.29s-.94,.1-1.33,.29c-.39,.19-.69,.46-.91,.8-.22,.34-.33,.73-.32,1.16,0,.42,.1,.78,.3,1.09,.21,.31,.51,.55,.89,.72,.39,.17,.84,.26,1.38,.26Zm0-5.52c.42,0,.79-.08,1.11-.25,.33-.17,.58-.4,.77-.7,.19-.3,.28-.65,.28-1.05,0-.39-.1-.74-.28-1.03-.18-.3-.43-.52-.76-.68-.32-.16-.7-.24-1.12-.24s-.82,.08-1.14,.24c-.33,.16-.58,.39-.76,.68-.18,.29-.27,.63-.26,1.03,0,.4,.09,.75,.27,1.05,.19,.3,.44,.53,.77,.7,.33,.17,.7,.25,1.12,.25Zm7.8,5.02l-.09,.61c-.06,.43-.16,.89-.3,1.39-.13,.49-.26,.96-.4,1.39-.14,.44-.26,.78-.35,1.04h-1.02c.05-.24,.11-.56,.19-.96,.08-.4,.16-.84,.24-1.34,.08-.49,.15-.99,.2-1.5l.07-.64h1.45Zm5.85,1.75c-.86,0-1.59-.23-2.19-.7-.6-.47-1.06-1.15-1.38-2.04-.32-.89-.48-1.97-.48-3.24s.16-2.33,.48-3.22c.32-.89,.78-1.58,1.39-2.05,.61-.47,1.33-.71,2.18-.71s1.57,.24,2.18,.71c.61,.47,1.07,1.15,1.39,2.05,.32,.89,.48,1.96,.48,3.22s-.16,2.35-.48,3.24c-.32,.89-.78,1.57-1.38,2.04-.6,.47-1.33,.7-2.19,.7Zm0-1.25c.85,0,1.51-.41,1.98-1.23s.7-1.99,.7-3.5c0-1.01-.11-1.87-.32-2.57-.21-.71-.52-1.25-.92-1.62-.4-.37-.88-.56-1.44-.56-.84,0-1.5,.41-1.97,1.24-.47,.83-.71,1.99-.71,3.51,0,1.01,.11,1.86,.32,2.57s.52,1.24,.91,1.61c.4,.37,.88,.55,1.45,.55Z"/>
  <path class="cls-3" d="M1438.11,452.35V12.35c0-.28-.22-.5-.5-.5h0c-.28,0-.5,.22-.5,.5V452.35c0,.28,.22,.5,.5,.5h0c.28,0,.5-.22,.5-.5Z"/>
  <path class="cls-3" d="M1267.11,452.35V12.35c0-.28-.22-.5-.5-.5h0c-.28,0-.5,.22-.5,.5V452.35c0,.28,.22,.5,.5,.5h0c.28,0,.5-.22,.5-.5Z"/>
  <path class="cls-3" d="M1096.11,452.35V12.35c0-.28-.22-.5-.5-.5h0c-.28,0-.5,.22-.5,.5V452.35c0,.28,.22,.5,.5,.5h0c.28,0,.5-.22,.5-.5Z"/>
  <path class="cls-3" d="M925.11,452.35V12.35c0-.28-.22-.5-.5-.5h0c-.28,0-.5,.22-.5,.5V452.35c0,.28,.22,.5,.5,.5h0c.28,0,.5-.22,.5-.5Z"/>
  <path class="cls-3" d="M754.11,452.35V12.35c0-.28-.22-.5-.5-.5h0c-.28,0-.5,.22-.5,.5V452.35c0,.28,.22,.5,.5,.5h0c.28,0,.5-.22,.5-.5Z"/>
  <path class="cls-3" d="M583.11,452.35V12.35c0-.28-.22-.5-.5-.5h0c-.28,0-.5,.22-.5,.5V452.35c0,.28,.22,.5,.5,.5h0c.28,0,.5-.22,.5-.5Z"/>
  <path class="cls-3" d="M412.11,452.35V12.35c0-.28-.22-.5-.5-.5h0c-.28,0-.5,.22-.5,.5V452.35c0,.28,.22,.5,.5,.5h0c.28,0,.5-.22,.5-.5Z"/>
  <path class="cls-3" d="M241.11,452.35V12.35c0-.28-.22-.5-.5-.5h0c-.28,0-.5,.22-.5,.5V452.35c0,.28,.22,.5,.5,.5h0c.28,0,.5-.22,.5-.5Z"/>
  <path class="cls-1" d="M70.11,452.35V12.35c0-.28-.22-.5-.5-.5h0c-.28,0-.5,.22-.5,.5V452.35c0,.28,.22,.5,.5,.5h0c.28,0,.5-.22,.5-.5Z"/>
  <path class="cls-1" d="M2.97,8.97c-.56,0-1.06-.1-1.5-.29-.44-.19-.79-.46-1.04-.81-.26-.35-.39-.75-.42-1.21H1.07c.02,.28,.12,.52,.29,.73,.17,.2,.39,.36,.67,.47,.28,.11,.58,.17,.92,.17,.37,0,.71-.07,1-.2,.29-.13,.52-.31,.68-.55,.16-.23,.25-.5,.25-.81s-.08-.6-.24-.85c-.16-.25-.39-.44-.7-.58-.31-.14-.68-.21-1.13-.21h-.7v-.94h.7c.35,0,.65-.06,.91-.19,.26-.12,.47-.3,.62-.53,.15-.23,.23-.49,.23-.8s-.07-.55-.2-.77-.32-.39-.55-.51c-.24-.12-.51-.18-.84-.18-.3,0-.59,.06-.85,.17-.26,.11-.48,.27-.65,.47-.17,.2-.26,.45-.27,.74H.19c.02-.46,.15-.86,.41-1.2,.26-.35,.6-.62,1.01-.81,.42-.19,.88-.29,1.38-.29,.54,0,1,.11,1.39,.33,.39,.22,.68,.5,.89,.86,.21,.36,.31,.74,.31,1.15,0,.49-.13,.91-.39,1.26-.26,.35-.6,.59-1.04,.72v.07c.55,.09,.98,.33,1.29,.7,.31,.38,.46,.84,.46,1.39,0,.47-.13,.9-.39,1.28-.26,.38-.61,.67-1.05,.89-.44,.22-.95,.32-1.51,.32Zm9.09-3.85v.94h-3.61v-.94h3.61Zm-3.38-2.81v6.55h-1.01V2.3h1.01Zm4.14,0v6.55h-1.01V2.3h1.01Zm3.76,6.7c-.41,0-.79-.08-1.13-.23-.34-.16-.61-.39-.81-.69-.2-.3-.3-.66-.3-1.09,0-.37,.07-.68,.22-.91,.15-.24,.35-.42,.59-.55,.25-.13,.52-.23,.82-.3,.3-.07,.6-.12,.91-.16,.4-.05,.72-.09,.97-.12,.25-.03,.43-.08,.55-.14,.12-.07,.17-.18,.17-.34v-.03c0-.42-.11-.75-.35-.98-.23-.23-.57-.35-1.04-.35s-.86,.11-1.13,.32c-.27,.21-.46,.43-.58,.67l-.95-.34c.17-.4,.4-.71,.68-.93,.29-.22,.6-.38,.94-.47,.34-.09,.68-.14,1.01-.14,.21,0,.45,.03,.72,.08,.28,.05,.54,.15,.8,.3,.26,.15,.47,.38,.64,.69,.17,.31,.26,.72,.26,1.24v4.31h-1.01v-.89h-.05c-.07,.14-.18,.29-.34,.46-.16,.16-.37,.3-.64,.41-.26,.11-.59,.17-.97,.17Zm.15-.9c.4,0,.73-.08,1.01-.23,.28-.16,.48-.36,.62-.61,.14-.25,.21-.51,.21-.78v-.92c-.04,.05-.14,.1-.28,.14-.14,.04-.31,.08-.49,.11-.18,.03-.36,.05-.54,.08-.17,.02-.31,.04-.42,.05-.26,.03-.51,.09-.73,.17-.22,.07-.41,.19-.55,.34-.14,.15-.2,.35-.2,.61,0,.35,.13,.61,.39,.79,.26,.18,.59,.26,.99,.26ZM26.47,2.3v6.55h-1.01V2.3h1.01Zm-.39,3.12v.94c-.23,.09-.45,.16-.68,.23-.22,.06-.46,.11-.71,.15-.25,.03-.52,.05-.81,.05-.74,0-1.34-.2-1.79-.6-.45-.4-.67-1-.67-1.8V2.28h1.01v2.1c0,.34,.06,.61,.19,.83,.13,.22,.3,.38,.52,.48,.22,.11,.46,.16,.74,.16,.43,0,.81-.04,1.15-.12,.35-.08,.69-.18,1.04-.31Zm4.98,3.56c-.63,0-1.17-.14-1.63-.42-.45-.28-.81-.67-1.05-1.18-.24-.51-.37-1.09-.37-1.76s.12-1.26,.37-1.77c.25-.51,.59-.91,1.03-1.2,.44-.29,.96-.43,1.55-.43,.34,0,.68,.06,1.01,.17,.33,.11,.63,.3,.91,.55,.27,.25,.49,.59,.65,1.01,.16,.42,.24,.93,.24,1.54v.43h-5.05v-.87h4.02c0-.37-.07-.7-.22-.99-.14-.29-.35-.52-.62-.69-.27-.17-.58-.25-.95-.25-.4,0-.75,.1-1.04,.3-.29,.2-.51,.45-.67,.77-.16,.32-.23,.65-.23,1.01v.58c0,.49,.09,.91,.26,1.26,.17,.34,.41,.6,.72,.78,.31,.18,.66,.26,1.07,.26,.26,0,.5-.04,.72-.11,.22-.08,.4-.19,.56-.34,.16-.15,.28-.34,.36-.57l.97,.27c-.1,.33-.27,.62-.52,.87-.24,.25-.54,.44-.89,.58-.36,.14-.75,.2-1.2,.2Zm8.62-3.87v.94h-3.61v-.94h3.61Zm-3.38-2.81v6.55h-1.01V2.3h1.01Zm4.14,0v6.55h-1.01V2.3h1.01Zm2.84,5.06l3.15-5.06h1.16v6.55h-1.01V3.78l-3.14,5.06h-1.18V2.3h1.01V7.36Zm8.9,1.62c-.63,0-1.17-.14-1.63-.42-.45-.28-.81-.67-1.05-1.18-.24-.51-.37-1.09-.37-1.76s.12-1.26,.37-1.77c.25-.51,.59-.91,1.03-1.2,.44-.29,.96-.43,1.55-.43,.34,0,.68,.06,1.01,.17,.33,.11,.63,.3,.91,.55,.27,.25,.49,.59,.65,1.01,.16,.42,.24,.93,.24,1.54v.43h-5.05v-.87h4.02c0-.37-.07-.7-.22-.99-.14-.29-.35-.52-.62-.69-.27-.17-.58-.25-.95-.25-.4,0-.75,.1-1.04,.3-.29,.2-.51,.45-.67,.77-.16,.32-.23,.65-.23,1.01v.58c0,.49,.09,.91,.26,1.26,.17,.34,.41,.6,.72,.78,.31,.18,.66,.26,1.07,.26,.26,0,.5-.04,.72-.11,.22-.08,.4-.19,.56-.34,.16-.15,.28-.34,.36-.57l.97,.27c-.1,.33-.27,.62-.52,.87-.24,.25-.54,.44-.89,.58-.36,.14-.75,.2-1.2,.2Z"/>
  <path class="cls-4" d="M70.11,248.85H1436.11"/>
  <path class="cls-6" d="M70.11,205.85H1436.11"/>
  <path class="cls-5" d="M240.11,431.85l172.96-137.32h169l177.48-9.52,166.74-8.02,509.83-61.14"/>
</svg>